<?xml version="1.0" encoding="UTF-8"?>
<svg version="1.1" xmlns="http://www.w3.org/2000/svg" width="500" height="350">
<path d="M0 0 C0.96591064 -0.01393799 1.93182129 -0.02787598 2.92700195 -0.04223633 C17.82828776 0.05563956 29.16346235 6.40555101 40.3359375 15.85546875 C43.89628088 18.80716731 47.54304484 21.61103428 51.25 24.375 C51.88067383 24.85606201 52.51134766 25.33712402 53.16113281 25.83276367 C56.48697698 28.29344491 59.11207404 30.14379046 63.375 30.375 C64.71590766 30.07357748 66.04878011 29.73559629 67.375 29.375 C84.29772663 28.18573004 84.29772663 28.18573004 90.375 33.375 C94.36278115 37.57105236 96.47158806 41.33972092 98.0625 46.9375 C98.26963623 47.64438965 98.47677246 48.3512793 98.69018555 49.07958984 C104.71566897 70.32318933 105.18448071 94.36457739 95.125 114.4375 C88.86376462 125.05380185 80.87263783 131.32677164 69.0625 135.1171875 C65.74079602 135.91097705 62.46824099 136.36530117 59.0703125 136.71875 C52.2226785 137.19791854 52.2226785 137.19791854 47.0625 141.125 C46.505625 142.1975 45.94875 143.27 45.375 144.375 C38.66740774 150.59823658 32.23188048 152.3132633 23.375 153.375 C23.40980469 154.55835938 23.44460938 155.74171875 23.48046875 156.9609375 C23.89558502 176.77959463 23.89558502 176.77959463 19.12109375 183.01171875 C12.22684429 189.56783063 1.71806998 188.72412459 -7.11132812 188.85351562 C-13.23039755 189.0341361 -16.87295245 189.70781735 -21.3984375 194.09375 C-21.92695313 194.6815625 -22.45546875 195.269375 -23 195.875 C-28.71065129 201.67124992 -34.70406401 202.89974384 -42.625 203.375 C-53.39598484 203.375 -59.84290468 198.2821852 -67.625 191.375 C-68.36943359 192.09816406 -68.36943359 192.09816406 -69.12890625 192.8359375 C-76.51542375 199.703857 -82.68370621 200.85100683 -92.6640625 200.69140625 C-103.94787971 199.79003624 -118.39706281 197.38712777 -126.125 188.5 C-127.625 185.375 -127.625 185.375 -128.1875 182 C-130.16991914 177.00085608 -133.43183854 175.3748298 -137.79296875 172.4140625 C-144.97760371 167.24112533 -149.25872213 161.08852564 -151.3125 152.5 C-152.06157636 145.00923644 -152.16842359 138.22888854 -148.625 131.375 C-147.45985029 130.00376939 -146.24907633 128.67024343 -145 127.375 C-141.67024284 123.84813248 -140.64150105 121.24625618 -140.4921875 116.41015625 C-140.67841286 113.55652643 -141.07229343 111.80532332 -142.625 109.375 C-144.0171875 108.323125 -144.0171875 108.323125 -145.4375 107.25 C-151.01378731 102.95844555 -153.60666594 95.14639656 -154.625 88.375 C-155.31967969 78.68956206 -154.59484041 71.68604687 -148.3125 64.125 C-144.0042585 59.5083791 -139.98445311 56.27184595 -133.625 55.375 C-131.37411386 55.42936923 -129.12385676 55.51505589 -126.875 55.625 C-119.98634493 55.66805409 -116.16900981 54.2752058 -110.625 50.375 C-100.67127967 43.85300829 -90.44845755 40.2368913 -78.875 37.5625 C-72.61850216 35.964408 -68.73495264 33.68020737 -63.96875 29.390625 C-61.54050535 27.3023346 -59.10390636 25.80990356 -56.3125 24.25 C-53.17108433 22.44587428 -51.54694168 21.28092972 -49.1875 18.4375 C-42.75364952 10.74826406 -32.8893772 6.67679501 -23.625 3.375 C-22.76132813 3.05402344 -21.89765625 2.73304687 -21.0078125 2.40234375 C-14.07668388 0.24264425 -7.20181733 0.06701763 0 0 Z " fill="#EDE400" transform="translate(273.625,75.625)"/>
<path d="M0 0 C0.96591064 -0.01393799 1.93182129 -0.02787598 2.92700195 -0.04223633 C17.82828776 0.05563956 29.16346235 6.40555101 40.3359375 15.85546875 C43.89628088 18.80716731 47.54304484 21.61103428 51.25 24.375 C51.88067383 24.85606201 52.51134766 25.33712402 53.16113281 25.83276367 C56.48697698 28.29344491 59.11207404 30.14379046 63.375 30.375 C64.71590766 30.07357748 66.04878011 29.73559629 67.375 29.375 C84.29772663 28.18573004 84.29772663 28.18573004 90.375 33.375 C94.36278115 37.57105236 96.47158806 41.33972092 98.0625 46.9375 C98.26963623 47.64438965 98.47677246 48.3512793 98.69018555 49.07958984 C104.71566897 70.32318933 105.18448071 94.36457739 95.125 114.4375 C88.86376462 125.05380185 80.87263783 131.32677164 69.0625 135.1171875 C65.74079602 135.91097705 62.46824099 136.36530117 59.0703125 136.71875 C52.2226785 137.19791854 52.2226785 137.19791854 47.0625 141.125 C46.505625 142.1975 45.94875 143.27 45.375 144.375 C38.66740774 150.59823658 32.23188048 152.3132633 23.375 153.375 C23.40980469 154.55835938 23.44460938 155.74171875 23.48046875 156.9609375 C23.89558502 176.77959463 23.89558502 176.77959463 19.12109375 183.01171875 C12.22684429 189.56783063 1.71806998 188.72412459 -7.11132812 188.85351562 C-13.23039755 189.0341361 -16.87295245 189.70781735 -21.3984375 194.09375 C-21.92695313 194.6815625 -22.45546875 195.269375 -23 195.875 C-28.71065129 201.67124992 -34.70406401 202.89974384 -42.625 203.375 C-53.39598484 203.375 -59.84290468 198.2821852 -67.625 191.375 C-68.36943359 192.09816406 -68.36943359 192.09816406 -69.12890625 192.8359375 C-76.51542375 199.703857 -82.68370621 200.85100683 -92.6640625 200.69140625 C-103.94787971 199.79003624 -118.39706281 197.38712777 -126.125 188.5 C-127.625 185.375 -127.625 185.375 -128.1875 182 C-130.16991914 177.00085608 -133.43183854 175.3748298 -137.79296875 172.4140625 C-144.97760371 167.24112533 -149.25872213 161.08852564 -151.3125 152.5 C-152.06157636 145.00923644 -152.16842359 138.22888854 -148.625 131.375 C-147.45985029 130.00376939 -146.24907633 128.67024343 -145 127.375 C-141.67024284 123.84813248 -140.64150105 121.24625618 -140.4921875 116.41015625 C-140.67841286 113.55652643 -141.07229343 111.80532332 -142.625 109.375 C-144.0171875 108.323125 -144.0171875 108.323125 -145.4375 107.25 C-151.01378731 102.95844555 -153.60666594 95.14639656 -154.625 88.375 C-155.31967969 78.68956206 -154.59484041 71.68604687 -148.3125 64.125 C-144.0042585 59.5083791 -139.98445311 56.27184595 -133.625 55.375 C-131.37411386 55.42936923 -129.12385676 55.51505589 -126.875 55.625 C-119.98634493 55.66805409 -116.16900981 54.2752058 -110.625 50.375 C-100.67127967 43.85300829 -90.44845755 40.2368913 -78.875 37.5625 C-72.61850216 35.964408 -68.73495264 33.68020737 -63.96875 29.390625 C-61.54050535 27.3023346 -59.10390636 25.80990356 -56.3125 24.25 C-53.17108433 22.44587428 -51.54694168 21.28092972 -49.1875 18.4375 C-42.75364952 10.74826406 -32.8893772 6.67679501 -23.625 3.375 C-22.76132813 3.05402344 -21.89765625 2.73304687 -21.0078125 2.40234375 C-14.07668388 0.24264425 -7.20181733 0.06701763 0 0 Z M-37.625 27.375 C-39.02319512 30.0264482 -39.02319512 30.0264482 -39.625 32.375 C-36.325 32.375 -33.025 32.375 -29.625 32.375 C-30.90375 32.51035156 -32.1825 32.64570312 -33.5 32.78515625 C-46.6389553 34.2746146 -46.6389553 34.2746146 -56.625 42.375 C-57.76463204 43.46485501 -58.910576 44.54814521 -60.0625 45.625 C-63.78105834 49.39426596 -67.06018474 53.49582963 -70.36328125 57.62890625 C-72.39913548 60.1007638 -74.53075588 62.38240505 -76.75 64.6875 C-81.78660096 70.3017393 -87.6733864 78.68756766 -87.59375 86.40234375 C-86.39716402 90.07412572 -84.45403256 92.78347416 -82.0625 95.75 C-81.63775391 96.29527344 -81.21300781 96.84054688 -80.77539062 97.40234375 C-79.73536413 98.73451252 -78.68155762 100.05590382 -77.625 101.375 C-74.56867141 98.36090047 -71.61958416 95.30991108 -68.8125 92.0625 C-68.20792969 91.36511719 -67.60335937 90.66773438 -66.98046875 89.94921875 C-66.53316406 89.42972656 -66.08585937 88.91023438 -65.625 88.375 C-67.64349341 92.41198682 -70.22762072 96.18879111 -72.6171875 100.015625 C-77.39216407 107.67125619 -77.39216407 107.67125619 -77.625 116.375 C-74.90741908 120.24000398 -71.7587407 122.74073782 -67.20703125 124.09375 C-60.09554383 124.69623607 -54.75491857 121.80547155 -48.69848633 118.50805664 C-43.35878827 115.61234877 -38.14898531 113.88349358 -32.19921875 112.5546875 C-29.43594767 111.53959502 -29.43594767 111.53959502 -27.78515625 108.8828125 C-26.26081833 104.2738716 -26.26164071 100.19276993 -26.375 95.375 C-26.38273437 94.06015625 -26.38273437 94.06015625 -26.390625 92.71875 C-26.43319819 89.18517554 -26.54922839 85.82500236 -27.13671875 82.3359375 C-27.81645841 78.21399621 -27.73071824 74.16889815 -27.6875 70 C-27.68298828 69.16855469 -27.67847656 68.33710938 -27.67382812 67.48046875 C-27.66213164 65.44528103 -27.64419935 63.41013077 -27.625 61.375 C-27.50382812 62.35339844 -27.38265625 63.33179688 -27.2578125 64.33984375 C-27.08875974 65.66409036 -26.9194764 66.98830754 -26.75 68.3125 C-26.58757812 69.60027344 -26.42515625 70.88804687 -26.2578125 72.21484375 C-25.86115523 75.10703598 -25.27529761 77.88586395 -24.57421875 80.71875 C-23.40874036 85.80353142 -23.29367356 90.73763649 -23.3125 95.9375 C-23.29638672 96.83146484 -23.28027344 97.72542969 -23.26367188 98.64648438 C-23.25936009 104.54069108 -23.92404023 109.08814377 -26.625 114.375 C-28.54296875 115.3125 -28.54296875 115.3125 -30.8125 115.375 C-39.86060293 116.45437605 -47.8816624 121.80691364 -55.78515625 126.0859375 C-60.47898017 128.21655909 -64.59322776 128.4489751 -69.625 127.375 C-74.01410135 124.90304054 -78.05422499 121.94577501 -81.625 118.375 C-81.480625 117.48296875 -81.33625 116.5909375 -81.1875 115.671875 C-80.13372931 109.02726539 -79.94974289 104.45410428 -83.72265625 98.84082031 C-85.62132634 96.29038962 -87.60121885 93.8276121 -89.625 91.375 C-91.43603624 87.75292752 -91.27187236 84.26176301 -90.625 80.375 C-86.50472536 69.76631946 -78.98997878 60.44077038 -70.796875 52.6328125 C-69.39777656 51.41763398 -69.39777656 51.41763398 -69.625 49.375 C-88.03532882 52.70452755 -103.74053952 59.27483216 -114.875 75.0625 C-123.63685223 89.18660579 -126.62826666 103.54429976 -123.04492188 120.04638672 C-120.27796306 129.86456687 -115.70485443 138.70303965 -110.12890625 147.19921875 C-107.89783492 151.91054599 -107.98078342 155.84798376 -109.28125 160.94921875 C-109.5596875 161.64660156 -109.838125 162.34398437 -110.125 163.0625 C-111.32119719 166.30851866 -111.96430661 168.86883166 -111.625 172.375 C-103.23672771 177.61767018 -94.56511142 179.79720056 -84.625 178.375 C-82.27868276 174.85552414 -81.98243041 172.15736826 -81.3828125 168.04296875 C-80.625 165.375 -80.625 165.375 -78.6015625 162.63671875 C-76.00321074 158.34892483 -75.96129654 154.91890255 -75.875 150 C-75.83052734 148.75283203 -75.83052734 148.75283203 -75.78515625 147.48046875 C-75.71499601 145.44582173 -75.66767105 143.41040909 -75.625 141.375 C-75.480625 142.509375 -75.33625 143.64375 -75.1875 144.8125 C-75.01328522 148.18277201 -75.01328522 148.18277201 -73.625 149.375 C-69.86097238 149.62797599 -66.08401963 149.56022937 -62.3125 149.5625 C-61.25353516 149.57474609 -60.19457031 149.58699219 -59.10351562 149.59960938 C-57.57307617 149.60250977 -57.57307617 149.60250977 -56.01171875 149.60546875 C-55.07545654 149.60957764 -54.13919434 149.61368652 -53.17456055 149.61791992 C-50.47098047 149.36032515 -48.86640002 148.89854323 -46.625 147.375 C-46.295 146.385 -45.965 145.395 -45.625 144.375 C-45.625 147.345 -45.625 150.315 -45.625 153.375 C-46.945 153.705 -48.265 154.035 -49.625 154.375 C-52.56847528 155.72319762 -55.17569634 157.24842811 -57.625 159.375 C-58.84187478 163.4936531 -57.39072707 166.16122706 -55.5 169.8125 C-54.5694029 171.35046159 -53.61069224 172.87175431 -52.625 174.375 C-52.16738281 175.07882813 -51.70976562 175.78265625 -51.23828125 176.5078125 C-49.32754272 179.09385314 -47.76775148 180.95054945 -44.7109375 182.0859375 C-42.34184187 182.35120303 -40.86391578 182.20798244 -38.625 181.375 C-36.73885396 179.66739691 -35.29211788 177.81073526 -33.7421875 175.79296875 C-31.13884331 172.81977677 -28.23521569 170.64322062 -25.0625 168.3125 C-20.27312695 164.72838625 -16.01507923 161.34511616 -12.625 156.375 C-12.05394531 155.53839844 -11.48289062 154.70179688 -10.89453125 153.83984375 C-7.3033867 148.15067446 -4.72118107 142.44507284 -2.6875 136.0625 C-2.47601318 135.40515869 -2.26452637 134.74781738 -2.04663086 134.07055664 C-0.76245592 129.74390852 -0.09833485 125.87065719 -0.625 121.375 C-2.29604744 119.28269006 -2.29604744 119.28269006 -4.625 117.9375 C-5.3675 117.44378906 -6.11 116.95007813 -6.875 116.44140625 C-7.4525 116.08949219 -8.03 115.73757812 -8.625 115.375 C0.72032726 118.49010909 7.61322179 122.82368392 14.94140625 129.265625 C18.08846717 131.99341456 19.4934851 132.58563525 23.5625 132.3125 C28.84265293 131.65673907 31.97389423 129.38482641 35.375 125.375 C36.99851077 122.33974074 37.375 120.81301737 37.375 117.375 C35.44390419 117.33210245 35.44390419 117.33210245 33.375 118.375 C32.30597061 120.67752483 31.30324183 123.0122026 30.375 125.375 C27.16048731 126.98225635 23.93887464 126.43248185 20.375 126.375 C20.705 127.035 21.035 127.695 21.375 128.375 C20.385 128.045 19.395 127.715 18.375 127.375 C18.34791433 125.77092672 18.32856517 124.1667215 18.3125 122.5625 C18.30089844 121.66917969 18.28929687 120.77585937 18.27734375 119.85546875 C18.375 117.375 18.375 117.375 19.375 114.375 C19.41454234 112.04200175 19.41901732 109.70791811 19.375 107.375 C20.385625 107.9525 21.39625 108.53 22.4375 109.125 C35.15158823 115.38149333 50.63581077 118.19613634 64.375 113.8125 C75.34035244 109.0356773 79.88204649 101.06692705 84.375 90.375 C88.61049911 76.6182885 87.0581279 56.17846608 80.375 43.375 C78.59378562 41.33340208 78.59378562 41.33340208 76.375 40.375 C73.77557357 40.50667826 72.76256792 40.95904682 70.98828125 42.86328125 C70.34439453 43.76626953 70.34439453 43.76626953 69.6875 44.6875 C66.7027027 48.44528327 63.74007718 49.79237861 59.23046875 51.2578125 C57.16799678 52.23234701 57.16799678 52.23234701 56.60546875 54.5390625 C56.33021119 57.92613008 56.39516344 61.22829546 56.5 64.625 C56.56193889 70.94896023 55.81903295 75.57042174 53.375 81.375 C53.54 80.611875 53.705 79.84875 53.875 79.0625 C54.54062149 74.15354151 54.45420078 69.32064886 54.375 64.375 C50.18452183 64.9685572 50.18452183 64.9685572 47.125 67.9375 C45.05914304 71.99543332 44.68593719 74.86641077 44.375 79.375 C43.715 79.375 43.055 79.375 42.375 79.375 C42.82737761 77.45691891 43.28714463 75.54057967 43.75 73.625 C44.00523437 72.55765625 44.26046875 71.4903125 44.5234375 70.390625 C45.25033541 67.81647278 46.0776224 65.69899814 47.375 63.375 C44.74252711 63.73073958 42.84448554 64.02723294 40.6875 65.625 C39.0961684 67.74677547 38.25097397 69.88184332 37.375 72.375 C38.19103808 68.13160197 38.77707432 65.90339944 42.0625 63 C45.59145998 61.26881209 48.47506971 60.68699442 52.375 60.375 C52.375 59.385 52.375 58.395 52.375 57.375 C49.405 57.375 46.435 57.375 43.375 57.375 C43.045 55.065 42.715 52.755 42.375 50.375 C44.67129994 49.22685003 46.45198086 49.06730191 49 48.8125 C49.81726563 48.72871094 50.63453125 48.64492187 51.4765625 48.55859375 C52.10304688 48.49800781 52.72953125 48.43742187 53.375 48.375 C50.69867555 43.04512833 48.48450581 38.73651698 43.375 35.375 C42.385 34.715 41.395 34.055 40.375 33.375 C37.74968476 33.20786431 37.74968476 33.20786431 35.375 33.375 C35.32988281 32.82585937 35.28476562 32.27671875 35.23828125 31.7109375 C32.64366449 24.69020981 21.91782836 18.34367309 15.6875 14.6875 C-1.76715458 6.75566225 -24.51492782 14.58468567 -37.625 27.375 Z " fill="#030300" transform="translate(273.625,75.625)"/>
<path d="M0 0 C1.48009643 0.97776067 2.95905144 1.9572494 4.4375 2.9375 C5.26121094 3.48277344 6.08492188 4.02804688 6.93359375 4.58984375 C9 6 9 6 10 7 C10.98906061 20.9367631 3.44579689 35.34739812 -5 46 C-10.17848476 51.455322 -16.10641342 55.92849277 -22.11328125 60.42578125 C-24.22399307 62.04807709 -24.22399307 62.04807709 -26.0625 64.9375 C-28 67 -28 67 -31.8125 67.8125 C-35.72469179 67.59271394 -37.36690312 66.05429734 -39.9375 63.1875 C-41.9185241 60.71009172 -42.98811443 59.03565672 -44 56 C-43.09507812 56.08701172 -43.09507812 56.08701172 -42.171875 56.17578125 C-39.70003163 56.3153208 -37.45214206 56.36010478 -35 56 C-33.64613064 54.34997172 -32.31321858 52.6825613 -31 51 C-29.15234375 50.76171875 -29.15234375 50.76171875 -26.9375 50.75 C-19.05273494 50.31992191 -13.48064808 43.64651608 -8.37109375 38.1953125 C-5.69923683 34.59468818 -4.26312328 31.26334605 -2.8125 27.0625 C-2.56564453 26.38509766 -2.31878906 25.70769531 -2.06445312 25.00976562 C1.46892224 15.24794328 1.46892224 15.24794328 1 5 C0.66620487 3.33342576 0.33278633 1.66677597 0 0 Z " fill="#B5B800" transform="translate(263,190)"/>
<path d="M0 0 C-3.10629878 7.17366239 -9.52231475 14.67265229 -16.74609375 17.87109375 C-18.67463363 18.62331443 -20.61742091 19.30987073 -22.57299805 19.98828125 C-32.79880626 23.55557615 -41.17013775 31.40900525 -46.3125 40.9375 C-51.83565011 53.21643457 -50.52157562 66.93075229 -49 80 C-55.9851187 69.52232195 -55.9018254 54.68996296 -53.54296875 42.67138672 C-49.15386984 26.76090318 -37.64472723 14.98785977 -23.8125 6.75 C-16.78631719 3.0710545 -7.96586596 0 0 0 Z " fill="#F2F0B6" transform="translate(204,125)"/>
<path d="M0 0 C0.66 0 1.32 0 2 0 C2.10812012 0.71542969 2.21624023 1.43085938 2.32763672 2.16796875 C3.3674077 8.74928271 4.72099166 15.17365111 6.31079102 21.64208984 C8.63340548 31.22087227 10.56808439 40.4869016 10.5625 50.375 C10.56459473 51.18195313 10.56668945 51.98890625 10.56884766 52.8203125 C10.44101552 57.2800202 10.22561549 60.78059957 7 64 C4.82300325 64.46715078 2.71899311 64.60883289 0.49658203 64.73876953 C-3.78152923 65.18641075 -7.59083662 66.85592115 -11.5625 68.4375 C-27.47981712 74.66824964 -27.47981712 74.66824964 -36 74 C-36.99 73.34 -37.98 72.68 -39 72 C-37.0509375 71.7834375 -37.0509375 71.7834375 -35.0625 71.5625 C-28.77965322 70.34907466 -23.59022419 67.37311018 -18.06665039 64.27563477 C-11.80411021 60.77361825 -6.18209827 58.86185179 1 58 C3.81094243 51.64385841 4.43705552 46.47284051 4.3125 39.5625 C4.31572266 38.67240234 4.31894531 37.78230469 4.32226562 36.86523438 C4.28146661 31.78761098 3.72356093 27.21853608 2.50561523 22.29711914 C1.57324956 18.06118064 1.26114304 13.75154069 0.875 9.4375 C0.78863281 8.52419922 0.70226562 7.61089844 0.61328125 6.66992188 C0.40379445 4.44703416 0.19945316 2.22380651 0 0 Z " fill="#B4B600" transform="translate(246,132)"/>
<path d="M0 0 C5.70197027 4.83605501 6.66787293 13.00374106 7.25683594 20.09033203 C8.07882601 36.17486664 8.20715022 50.50000464 -2.55078125 63.42578125 C-8.7831192 70.19567934 -16.57251898 73.08111425 -25.7265625 73.47607422 C-35.20762686 73.5881814 -45.9782385 72.347841 -54 67 C-53.01902344 67.144375 -52.03804688 67.28875 -51.02734375 67.4375 C-36.75434351 69.44720406 -24.22936302 70.85351617 -11 64 C-10.27167969 63.69835937 -9.54335938 63.39671875 -8.79296875 63.0859375 C-6.49958657 61.69691736 -6.02866475 60.44920178 -5 58 C-4.60941406 57.31164062 -4.21882813 56.62328125 -3.81640625 55.9140625 C4.62739686 40.4995185 4.21588772 24.09030927 0.65625 7.3984375 C0 4 0 4 0 0 Z " fill="#B5B700" transform="translate(352,118)"/>
<path d="M0 0 C0.66 0 1.32 0 2 0 C4.750088 5.51488235 5.48285362 10.00255226 5.625 16.125 C5.67640281 17.69021549 5.73100243 19.25532982 5.7890625 20.8203125 C5.82628418 21.91327637 5.82628418 21.91327637 5.86425781 23.02832031 C5.95875551 25.15771974 5.95875551 25.15771974 6.6484375 27.8046875 C7 30 7 30 5 34 C-1.93 34 -8.86 34 -16 34 C-14.23792103 30.47584206 -12.30985987 27.31136836 -10.1875 24 C-5.51073142 16.54437439 -1.50566337 8.74869665 0 0 Z " fill="#B0B300" transform="translate(274,209)"/>
<path d="M0 0 C0.66 0 1.32 0 2 0 C2.20753906 0.57105469 2.41507813 1.14210937 2.62890625 1.73046875 C5.07948096 8.17988923 8.14958589 14.05212189 11.609375 20.01953125 C13.01977779 23.04238892 13.48043106 24.72277382 13 28 C11 30 11 30 8.4375 30.5 C2.03719489 29.56904653 -3.11362328 25.5370615 -7.0625 20.5 C-8.46207318 18.25577213 -9.0835384 16.67280794 -9.75 14.0625 C-8.60167194 9.37349376 -5.56641635 6.17911322 -2 3 C-1.34 3 -0.68 3 0 3 C0 2.01 0 1.02 0 0 Z " fill="#EBE300" transform="translate(148,203)"/>
<path d="M0 0 C-4.45512041 4.59012406 -4.45512041 4.59012406 -6.75 6.31640625 C-11.39170715 9.82769765 -13.28571553 13.14221434 -15.17578125 18.6328125 C-15.95592101 20.87340346 -16.89424357 22.90437427 -18 25 C-18.33 22.69 -18.66 20.38 -19 18 C-20.32 18 -21.64 18 -23 18 C-23.10957031 18.71414062 -23.21914062 19.42828125 -23.33203125 20.1640625 C-25.22634007 28.2065666 -30.45800785 35.06215127 -36 41 C-36 37.64452878 -35.28041751 36.23100172 -33.8125 33.25 C-31.66658672 28.69824592 -30.00128412 24.10740544 -28.5 19.3125 C-26.40386609 12.70652736 -23.98383289 6.98383289 -19 2 C-16.171875 1.3671875 -16.171875 1.3671875 -12.75 0.875 C-11.63109375 0.70742187 -10.5121875 0.53984375 -9.359375 0.3671875 C-6.20552869 0.02246476 -3.16914916 -0.06722438 0 0 Z " fill="#B0B200" transform="translate(247,116)"/>
<path d="M0 0 C0.66 0.33 1.32 0.66 2 1 C1.443125 1.57105469 0.88625 2.14210938 0.3125 2.73046875 C-5.31915601 8.71410326 -9.68313096 14.88399306 -13.80908203 21.97314453 C-15.19276285 24.32806831 -16.6085177 26.6621799 -18.02734375 28.99609375 C-19.10177521 30.76810021 -20.17599409 32.54023558 -21.25 34.3125 C-21.75764893 35.1482959 -22.26529785 35.9840918 -22.78833008 36.84521484 C-28.81686864 46.36365704 -28.81686864 46.36365704 -32 57 C-34.53419256 54.87454817 -35.85816097 53.47827845 -36.80859375 50.2734375 C-37.22450492 43.16050776 -32.2280851 35.86892481 -27.94921875 30.359375 C-26.49912614 28.75817584 -25.02124959 27.18179046 -23.51953125 25.62890625 C-20.5330946 22.51282584 -17.77713581 19.23916202 -15 15.9375 C-10.25222179 10.33949775 -5.31322879 5.07171839 0 0 Z " fill="#F1F0B4" transform="translate(223,112)"/>
<path d="M0 0 C0.66 0.33 1.32 0.66 2 1 C1.96670236 4.00284211 1.899207 6.99860384 1.8125 10 C1.80669922 10.83917969 1.80089844 11.67835938 1.79492188 12.54296875 C1.59702893 18.21589978 0.41773835 21.59097983 -2.83520508 26.22705078 C-4.3645236 28.55484602 -4.85685581 30.6983106 -5.25 33.4375 C-5.93693694 37.93693694 -5.93693694 37.93693694 -7 39 C-15.14193827 39.70799463 -22.28309193 38.55204834 -30 36 C-30 35.67 -30 35.34 -30 35 C-29.07316406 34.93941406 -28.14632812 34.87882812 -27.19140625 34.81640625 C-25.99386719 34.73261719 -24.79632813 34.64882812 -23.5625 34.5625 C-22.36753906 34.48128906 -21.17257813 34.40007812 -19.94140625 34.31640625 C-17.11429756 34.32343886 -17.11429756 34.32343886 -16 33 C-15.9690625 31.4221875 -15.9690625 31.4221875 -15.9375 29.8125 C-14.75976445 25.0230421 -12.99077263 23.97548903 -9.0078125 21.359375 C-4.68721048 18.43414251 -3.54125517 16.26421235 -2.375 11.125 C-2.01535156 9.58199219 -2.01535156 9.58199219 -1.6484375 8.0078125 C-1.07391106 5.34284045 -0.52324662 2.67546859 0 0 Z " fill="#B5B700" transform="translate(196,215)"/>
<path d="M0 0 C-0.804375 0.45375 -1.60875 0.9075 -2.4375 1.375 C-5.08856572 2.74725665 -5.08856572 2.74725665 -6 5 C-6.50030131 10.71274291 -5.83950258 15.59646117 -4 21 C-4.97066406 20.34515625 -5.94132812 19.6903125 -6.94140625 19.015625 C-11.29668069 16.52689675 -15.02457568 16.53108649 -19.9375 16.75 C-20.71673828 16.76804687 -21.49597656 16.78609375 -22.29882812 16.8046875 C-24.19976131 16.85133617 -26.10005169 16.92306171 -28 17 C-25.63742245 9.7506173 -19.31917046 6.03452982 -12.75 2.6875 C-11.50485317 2.11433717 -10.25530021 1.55057027 -9 1 C-8.0925 0.566875 -7.185 0.13375 -6.25 -0.3125 C-3.72144276 -1.08511471 -2.45100975 -0.90778139 0 0 Z " fill="#F3F1B1" transform="translate(262,91)"/>
<path d="M0 0 C0 1.32 0 2.64 0 4 C0.33 4.99 0.66 5.98 1 7 C2.98 7 4.96 7 7 7 C4.6094991 8.59366727 2.27350653 9.95810052 -0.25 11.3125 C-4.41243772 13.60150012 -8.19205821 16.16429867 -12 19 C-11.67 17.68 -11.34 16.36 -11 15 C-10.34 15 -9.68 15 -9 15 C-8.34 13.35 -7.68 11.7 -7 10 C-8.32 10 -9.64 10 -11 10 C-11.66 11.32 -12.32 12.64 -13 14 C-13.33 12.68 -13.66 11.36 -14 10 C-15.65 10.66 -17.3 11.32 -19 12 C-18.09066991 10.72390677 -17.17217147 9.45434447 -16.25 8.1875 C-15.73953125 7.47980469 -15.2290625 6.77210938 -14.703125 6.04296875 C-11.36223628 2.0354348 -5.3078092 -2.6539046 0 0 Z " fill="#171704" transform="translate(294,130)"/>
<path d="M0 0 C0.66 0 1.32 0 2 0 C2.20753906 0.57105469 2.41507813 1.14210937 2.62890625 1.73046875 C5.07948096 8.17988923 8.14958589 14.05212189 11.609375 20.01953125 C13.01977779 23.04238892 13.48043106 24.72277382 13 28 C11 30 11 30 8.4375 30.5 C3.43939478 29.77300288 -0.1195642 27.15336467 -4 24 C-4.33 23.34 -4.66 22.68 -5 22 C-2.03 22 0.94 22 4 22 C5.11336011 18.74556274 5.26443285 16.64529508 3.953125 13.4453125 C3.03883953 11.67324235 2.0979647 9.91459593 1.12890625 8.171875 C0 6 0 6 0 4 C-0.66 3.67 -1.32 3.34 -2 3 C-1.34 3 -0.68 3 0 3 C0 2.01 0 1.02 0 0 Z " fill="#B1B300" transform="translate(148,203)"/>
<path d="M0 0 C1.17829199 2.35658397 1.04414372 3.52573236 0.87890625 6.1328125 C0.83056641 6.93847656 0.78222656 7.74414062 0.73242188 8.57421875 C0.67634766 9.41597656 0.62027344 10.25773438 0.5625 11.125 C0.51029297 11.97449219 0.45808594 12.82398438 0.40429688 13.69921875 C0.27448622 15.79979124 0.1378826 17.89994191 0 20 C-0.33 20 -0.66 20 -1 20 C-1.33 16.37 -1.66 12.74 -2 9 C-2.66 10.32 -3.32 11.64 -4 13 C-7.05919388 14.01973129 -9.12418025 14.11533602 -12.32421875 14.09765625 C-13.35224609 14.09443359 -14.38027344 14.09121094 -15.43945312 14.08789062 C-16.51130859 14.07951172 -17.58316406 14.07113281 -18.6875 14.0625 C-19.77095703 14.05798828 -20.85441406 14.05347656 -21.97070312 14.04882812 C-24.64719085 14.03703743 -27.32356777 14.02058063 -30 14 C-30.33 13.01 -30.66 12.02 -31 11 C-29.87722656 10.89042969 -28.75445312 10.78085938 -27.59765625 10.66796875 C-13.43881407 9.89906168 -13.43881407 9.89906168 -1.9375 2.8125 C-1.298125 1.884375 -0.65875 0.95625 0 0 Z " fill="#B3B400" transform="translate(230,211)"/>
<path d="M0 0 C-0.28438952 1.89693861 -0.57783792 3.79252027 -0.875 5.6875 C-1.03742188 6.74324219 -1.19984375 7.79898438 -1.3671875 8.88671875 C-2 12 -2 12 -3.1953125 14.70703125 C-3.46085938 15.46371094 -3.72640625 16.22039062 -4 17 C-3.34 17.99 -2.68 18.98 -2 20 C1.02419525 19.41196203 4.01758453 18.77321882 7 18 C6.34 19.98 5.68 21.96 5 24 C2.20798082 24.18308322 -0.24664053 24.33870692 -3 24 C-4.8125 22.375 -4.8125 22.375 -6 20 C-6.8353125 18.576875 -6.8353125 18.576875 -7.6875 17.125 C-9.19824244 13.5279942 -9.76850122 11.8425061 -9 8 C-3.43478261 0 -3.43478261 0 0 0 Z " fill="#B5B800" transform="translate(143,143)"/>
<path d="M0 0 C-3 2 -3 2 -5.4375 2.75 C-10.31754527 5.13050989 -12.2602382 10.07067491 -14 15 C-14.33 15 -14.66 15 -15 15 C-15 12.36 -15 9.72 -15 7 C-19.37481908 13.03725032 -22.50621423 18.97339186 -25 26 C-26.98243948 21.0134958 -24.29366299 16.81587839 -22.40625 12.14453125 C-20.45955549 7.79150602 -18.38881977 4.38881977 -15 1 C-10.1635091 -0.51140341 -5.01191478 -0.08758686 0 0 Z " fill="#1F1E00" transform="translate(243,117)"/>
<path d="M0 0 C0.144375 0.61875 0.28875 1.2375 0.4375 1.875 C0.93152225 4.03258322 0.93152225 4.03258322 2 6 C1.236875 6.226875 0.47375 6.45375 -0.3125 6.6875 C-3.7017466 8.34271345 -4.4409171 9.58486603 -6 13 C-6.78804221 15.65471718 -7.40323244 18.29159339 -8 21 C-8.66 21 -9.32 21 -10 21 C-9.71743908 19.06115111 -9.4236207 17.12394039 -9.125 15.1875 C-8.96257812 14.10855469 -8.80015625 13.02960938 -8.6328125 11.91796875 C-8 9 -8 9 -6 6 C-7.91466367 6.12177688 -7.91466367 6.12177688 -10 7 C-11.60907108 9.37612865 -11.60907108 9.37612865 -13 12 C-14.6875 13.8125 -14.6875 13.8125 -16 15 C-15.27715795 9.94010568 -13.78412071 6.43720835 -9.75 3.1875 C-6.3515143 1.71997208 -3.66384562 1.78447967 0 2 C0 1.34 0 0.68 0 0 Z " fill="#2F2E00" transform="translate(326,134)"/>
<path d="M0 0 C0.33 0.66 0.66 1.32 1 2 C-1.72685049 6.61467005 -4.04607121 9.56977078 -9 12 C-12.03386697 12.30785557 -14.96354841 12.24291613 -18 12 C-18.33 12.66 -18.66 13.32 -19 14 C-18.80078125 11.67578125 -18.80078125 11.67578125 -18 9 C-15.85546875 7.41796875 -15.85546875 7.41796875 -13.1875 6.1875 C-12.31480469 5.76855469 -11.44210937 5.34960938 -10.54296875 4.91796875 C-8 4 -8 4 -4 4 C-1.74934898 2.08333079 -1.74934898 2.08333079 0 0 Z " fill="#CBC300" transform="translate(349,119)"/>
<path d="M0 0 C0.99 0 1.98 0 3 0 C2.74537391 5.21983494 0.88742925 7.80651897 -2.4296875 11.58203125 C-4 13 -4 13 -7 14 C-9.3406065 13.72230092 -11.67624308 13.39460023 -14 13 C-14 12.01 -14 11.02 -14 10 C-12 9 -12 9 -9.125 9.1875 C-5.94950747 9.28498748 -5.94950747 9.28498748 -3.75 7.3125 C-1.95581983 4.94161906 -0.93699029 2.81097087 0 0 Z " fill="#A1A200" transform="translate(308,193)"/>
<path d="M0 0 C1.98 0 3.96 0 6 0 C1.46217403 4.8403477 -3.59800548 9.14689594 -9 13 C-9.66 13 -10.32 13 -11 13 C-9.62701605 8.99546349 -7.91649198 6.08314867 -5 3 C-2.25 1.6875 -2.25 1.6875 0 1 C0 0.67 0 0.34 0 0 Z " fill="#A4A500" transform="translate(241,116)"/>
<path d="M0 0 C1.03898437 0.13277344 2.07796875 0.26554688 3.1484375 0.40234375 C10.75719945 1.36804314 18.36091435 2.30219891 26 3 C26 3.99 26 4.98 26 6 C20.42167375 6.45537357 15.57427043 5.56216264 10.1875 4.125 C9.52935303 3.95129883 8.87120605 3.77759766 8.19311523 3.59863281 C5.03201008 2.71971317 2.75704684 1.83803122 0 0 Z " fill="#A7A900" transform="translate(298,185)"/>
<path d="M0 0 C6.37675351 6.03206413 6.37675351 6.03206413 8 10 C7.94332335 13.05538683 7.54324423 15.99579396 7 19 C6.67 19 6.34 19 6 19 C5.62875 17.7625 5.62875 17.7625 5.25 16.5 C4.27115704 13.7592397 3.23497484 11.47901326 1.875 8.9375 C0.25661347 5.8146134 -0.44752547 3.58020372 0 0 Z " fill="#B0B200" transform="translate(185,170)"/>
<path d="M0 0 C0.33 0 0.66 0 1 0 C1.66 7.59 2.32 15.18 3 23 C-1.13003415 16.80494877 -3.2136118 9.45504389 -2 2 C-1.34 1.34 -0.68 0.68 0 0 Z " fill="#DEDD9F" transform="translate(152,182)"/>
<path d="M0 0 C2.75 0.25 2.75 0.25 5 1 C5 2.65 5 4.3 5 6 C4.01 6.495 4.01 6.495 3 7 C2.67 6.01 2.34 5.02 2 4 C0.68 5.32 -0.64 6.64 -2 8 C-2.66 6.68 -3.32 5.36 -4 4 C-2.3125 1.9375 -2.3125 1.9375 0 0 Z " fill="#DAD200" transform="translate(347,116)"/>
<path d="M0 0 C0.33 0.99 0.66 1.98 1 3 C-0.58203125 5.6640625 -0.58203125 5.6640625 -2.8125 8.625 C-3.54082031 9.60726562 -4.26914063 10.58953125 -5.01953125 11.6015625 C-7 14 -7 14 -9 15 C-8.35199575 13.32598903 -7.67834587 11.66194738 -7 10 C-6.69707031 9.24074219 -6.39414063 8.48148438 -6.08203125 7.69921875 C-5.74558594 6.89097656 -5.40914062 6.08273438 -5.0625 5.25 C-4.74410156 4.47140625 -4.42570313 3.6928125 -4.09765625 2.890625 C-3 1 -3 1 0 0 Z " fill="#BEBF00" transform="translate(219,142)"/>
<path d="M0 0 C3.68006822 3.38168431 5.9785845 6.42521756 8 11 C5.69 11 3.38 11 1 11 C1.33 10.34 1.66 9.68 2 9 C1.6808377 6.77375407 1.6808377 6.77375407 1.0625 4.375 C0.86785156 3.55773437 0.67320312 2.74046875 0.47265625 1.8984375 C0.31667969 1.27195312 0.16070312 0.64546875 0 0 Z " fill="#A6A800" transform="translate(319,113)"/>
<path d="M0 0 C0.33 0.66 0.66 1.32 1 2 C-1.73629705 6.63065655 -4.11875942 9.40995398 -9 12 C-11.875 12.25 -11.875 12.25 -14 12 C-11.72026741 10.24635955 -9.4426843 8.65167769 -7 7.125 C-4.01994123 5.01412504 -2.12629027 2.94409422 0 0 Z " fill="#1F1F01" transform="translate(349,119)"/>
<path d="M0 0 C-1.08196054 2.5245746 -2.00633756 4.00576142 -4.0625 5.875 C-6.4790362 8.52539454 -6.68060224 10.48662462 -7 14 C-7.66 14 -8.32 14 -9 14 C-9.58576414 10.65277635 -9.44507491 8.65184199 -7.51171875 5.8203125 C-2.50956406 0 -2.50956406 0 0 0 Z " fill="#CEC700" transform="translate(143,143)"/>
<path d="M0 0 C0.99 0.33 1.98 0.66 3 1 C1.63875 1.7734375 1.63875 1.7734375 0.25 2.5625 C-3.51762616 5.03556267 -5.0084148 8.01682961 -7 12 C-7.33 12 -7.66 12 -8 12 C-8.375 9.3125 -8.375 9.3125 -8 6 C-5.76844894 3.39652377 -3.06821093 1.53410547 0 0 Z " fill="#1F1F00" transform="translate(276,116)"/>
<path d="M0 0 C0.7734375 0.7115625 0.7734375 0.7115625 1.5625 1.4375 C4.66782675 3.42809407 7.36632504 3.65060818 11 4 C9 6 9 6 6.1875 6.3125 C2.65053308 5.96573854 0.80609399 5.14583658 -2 3 C-2 2.34 -2 1.68 -2 1 C-1.34 0.67 -0.68 0.34 0 0 Z " fill="#D6CE00" transform="translate(290,202)"/>
<path d="M0 0 C-0.66 1.98 -1.32 3.96 -2 6 C-4.31 5.67 -6.62 5.34 -9 5 C-9 4.34 -9 3.68 -9 3 C-2.25 0 -2.25 0 0 0 Z " fill="#A0A200" transform="translate(150,161)"/>
<path d="M0 0 C0.66 0.33 1.32 0.66 2 1 C0.61559342 2.63474589 -0.78303245 4.25745662 -2.1875 5.875 C-2.96480469 6.77992187 -3.74210938 7.68484375 -4.54296875 8.6171875 C-6.99573203 10.99586095 -8.77053123 12.00190486 -12 13 C-8.19524578 8.43969176 -4.25030379 4.14910608 0 0 Z " fill="#D8D79B" transform="translate(223,112)"/>
<path d="M0 0 C1.95766281 -0.08082094 3.91626728 -0.13910778 5.875 -0.1875 C7.51082031 -0.23970703 7.51082031 -0.23970703 9.1796875 -0.29296875 C10.11039063 -0.19628906 11.04109375 -0.09960938 12 0 C12.66 0.99 13.32 1.98 14 3 C8.78020872 3.1799928 4.92737019 2.97094808 0 1 C0 0.67 0 0.34 0 0 Z " fill="#ACAC00" transform="translate(166,250)"/>
<path d="M0 0 C0.8353125 0.37125 0.8353125 0.37125 1.6875 0.75 C0.264375 1.5853125 0.264375 1.5853125 -1.1875 2.4375 C-4.40128787 4.81570302 -5.26815118 5.99034426 -6.3125 9.75 C-6.6425 9.75 -6.9725 9.75 -7.3125 9.75 C-7.625 7 -7.625 7 -7.3125 3.75 C-3.50153592 -0.37854442 -3.50153592 -0.37854442 0 0 Z " fill="#3F3E00" transform="translate(293.3125,177.25)"/>
<path d="M0 0 C0.66 0.33 1.32 0.66 2 1 C0.8782037 2.7936743 -0.24754483 4.5848773 -1.375 6.375 C-2.00148437 7.37273437 -2.62796875 8.37046875 -3.2734375 9.3984375 C-5 12 -5 12 -7 14 C-7.7109375 12.2578125 -7.7109375 12.2578125 -8 10 C-6.6015625 7.9296875 -6.6015625 7.9296875 -4.625 5.875 C-1.98987907 3.16381984 -1.98987907 3.16381984 0 0 Z " fill="#353400" transform="translate(208,162)"/>
<path d="M0 0 C5.78461538 3.44615385 5.78461538 3.44615385 6.875 6.25 C6.936875 7.11625 6.936875 7.11625 7 8 C4.03 7.505 4.03 7.505 1 7 C0.67 4.69 0.34 2.38 0 0 Z " fill="#B0B200" transform="translate(302,101)"/>
<path d="M0 0 C2.7710688 2.34591852 3.52059284 4.14776201 4.1875 7.6875 C4.34605469 8.49574219 4.50460937 9.30398437 4.66796875 10.13671875 C4.77753906 10.75160156 4.88710938 11.36648437 5 12 C4.34 12 3.68 12 3 12 C2.49166409 10.75336669 1.99368855 9.50250613 1.5 8.25 C1.2215625 7.55390625 0.943125 6.8578125 0.65625 6.140625 C0 4 0 4 0 0 Z " fill="#A6A800" transform="translate(352,118)"/>
<path d="M0 0 C0.66 0.33 1.32 0.66 2 1 C-1.14285714 9.57142857 -1.14285714 9.57142857 -3 13 C-3.33 10.36 -3.66 7.72 -4 5 C-3.34 5 -2.68 5 -2 5 C-2 3.68 -2 2.36 -2 1 C-1.34 0.67 -0.68 0.34 0 0 Z " fill="#BFC000" transform="translate(232,128)"/>
<path d="M0 0 C1.65 0.33 3.3 0.66 5 1 C3.6875 3 3.6875 3 2 5 C1.01 5 0.02 5 -1 5 C-0.67 3.35 -0.34 1.7 0 0 Z " fill="#F5F4BB" transform="translate(283,139)"/>
<path d="M0 0 C1.37562854 1.28965176 2.70766393 2.62689293 4 4 C4 4.66 4 5.32 4 6 C5.65 6 7.3 6 9 6 C8.67 6.66 8.34 7.32 8 8 C2.53099511 7.51386623 2.53099511 7.51386623 0.0625 5.125 C-0.288125 4.42375 -0.63875 3.7225 -1 3 C-0.67 2.01 -0.34 1.02 0 0 Z " fill="#BCBD00" transform="translate(293,130)"/>
<path d="M0 0 C0.66 0 1.32 0 2 0 C2.33 2.31 2.66 4.62 3 7 C1.68 7.33 0.36 7.66 -1 8 C-0.67 5.36 -0.34 2.72 0 0 Z " fill="#A6A800" transform="translate(274,209)"/>
<path d="M0 0 C0.99 0 1.98 0 3 0 C3.33 1.32 3.66 2.64 4 4 C2.68 3.67 1.36 3.34 0 3 C-0.33 4.98 -0.66 6.96 -1 9 C-1.33 9 -1.66 9 -2 9 C-2.125 5.625 -2.125 5.625 -2 2 C-1.34 1.34 -0.68 0.68 0 0 Z " fill="#434300" transform="translate(143,144)"/>
<path d="M0 0 C0.66 0 1.32 0 2 0 C2.33 1.32 2.66 2.64 3 4 C4.32 4.33 5.64 4.66 7 5 C5.35 5.33 3.7 5.66 2 6 C1.01 4.35 0.02 2.7 -1 1 C-0.67 0.67 -0.34 0.34 0 0 Z " fill="#A3A409" transform="translate(278,140)"/>
<path d="M0 0 C0.99 0.33 1.98 0.66 3 1 C1.26440562 4.057952 -0.38472619 6.63379989 -3 9 C-2.44271087 5.65626525 -1.64826111 2.96687001 0 0 Z " fill="#454400" transform="translate(313,140)"/>
</svg>
