<?xml version="1.0" encoding="UTF-8"?>
<svg version="1.1" xmlns="http://www.w3.org/2000/svg" width="2048" height="2048">
<path d="M0 0 C56.76 0 113.52 0 172 0 C172.33 56.43 172.66 112.86 173 171 C181.58 166.05 190.16 161.1 199 156 C231.50000001 137.25 231.50000001 137.25 234.75048828 135.37475586 C236.91557071 134.12564482 239.08060982 132.87645871 241.24560547 131.62719727 C246.68615706 128.48797691 252.12747216 125.35009437 257.5703125 122.21484375 C269.19913165 115.51445773 280.81241454 108.788761 292.40087891 102.01879883 C301.58580759 96.65359741 310.7899107 91.32186764 320 86 C322.67813752 88.4150749 324.3043511 91.01052912 326.08203125 94.13671875 C326.67693359 95.17634766 327.27183594 96.21597656 327.88476562 97.28710938 C328.52091797 98.40923828 329.15707031 99.53136719 329.8125 100.6875 C330.82652174 102.46333743 331.84230529 104.23815984 332.85812378 106.01296997 C333.55246591 107.22641774 334.24624725 108.44018655 334.93948364 109.65426636 C338.25491936 115.45849317 341.62314004 121.23131834 345 127 C351.74803083 138.54669402 358.43339778 150.12902826 365.10888672 161.71777344 C368.85651605 168.22217941 372.60904961 174.72375795 376.36157227 181.2253418 C379.56532462 186.77686292 382.76584577 192.33020797 385.9609375 197.88671875 C387.26558758 200.15366737 388.57027449 202.42059479 389.875 204.6875 C390.81001343 206.31486084 390.81001343 206.31486084 391.76391602 207.97509766 C394.44128664 212.62246033 397.13234219 217.25500195 399.94140625 221.82421875 C400.58456787 222.87186401 400.58456787 222.87186401 401.24072266 223.94067383 C402.33758271 225.71350578 403.44745024 227.47827276 404.55859375 229.2421875 C406 232 406 232 406 236 C405.2879541 236.40613525 404.5759082 236.81227051 403.84228516 237.23071289 C387.61238092 246.49029763 371.40519854 255.78775023 355.2265625 265.13671875 C351.96475993 267.0203505 348.70138156 268.90122321 345.4375 270.78125 C334.94261084 276.82747312 324.45769461 282.88963481 314 289 C302.45270484 295.74701194 290.87097973 302.43339318 279.28222656 309.10888672 C273.85340058 312.23680148 268.42680719 315.36858448 263 318.5 C260.83334417 319.75001879 258.6666775 321.00001878 256.5 322.25 C255.4275 322.86875 254.355 323.4875 253.25 324.125 C243.5 329.75 243.5 329.75 240.24951172 331.62524414 C238.08442929 332.87435518 235.91939018 334.12354129 233.75439453 335.37280273 C228.31384294 338.51202309 222.87252784 341.64990563 217.4296875 344.78515625 C215.24478807 346.04426459 213.05989221 347.30337914 210.875 348.5625 C209.81474609 349.17295166 208.75449219 349.78340332 207.66210938 350.41235352 C202.12784828 353.60282634 196.60590431 356.81287582 191.1015625 360.0546875 C189.99312988 360.70622803 188.88469727 361.35776855 187.74267578 362.02905273 C185.62162506 363.2773778 183.50271524 364.52934949 181.38623047 365.78540039 C180.44408691 366.3396167 179.50194336 366.89383301 178.53125 367.46484375 C177.70173828 367.955896 176.87222656 368.44694824 176.01757812 368.95288086 C174 370 174 370 172 370 C172.33 480.22 172.66 590.44 173 704 C181.58 699.05 190.16 694.1 199 689 C387.50000001 580.24999999 387.50000001 580.24999999 390.75048828 578.37475586 C392.91557071 577.12564482 395.08060982 575.87645871 397.24560547 574.62719727 C402.68615706 571.48797691 408.12747216 568.35009437 413.5703125 565.21484375 C415.75523097 563.95576845 417.94012693 562.69665408 420.125 561.4375 C421.1874292 560.82559814 422.2498584 560.21369629 423.34448242 559.58325195 C428.83954846 556.41458256 434.32379892 553.22881135 439.79296875 550.015625 C441.43531494 549.05184937 441.43531494 549.05184937 443.11083984 548.06860352 C445.19240132 546.84560282 447.27225312 545.61968593 449.35009766 544.39038086 C450.74881104 543.56872437 450.74881104 543.56872437 452.17578125 542.73046875 C452.98958252 542.24989014 453.80338379 541.76931152 454.6418457 541.27416992 C457 540 457 540 462 538 C462 448.57 462 359.14 462 267 C518.43 267 574.86 267 633 267 C633.33 323.43 633.66 379.86 634 438 C641.92 433.38 649.84 428.76 658 424 C662.28924858 421.51637912 666.57931893 419.03487688 670.875 416.5625 C673.05990538 415.30340198 675.24480092 414.04428689 677.4296875 412.78515625 C678.51475586 412.16012207 679.59982422 411.53508789 680.71777344 410.89111328 C686.14659942 407.76319852 691.57319281 404.63141552 697 401.5 C699.16665583 400.24998121 701.3333225 398.99998122 703.5 397.75 C704.5725 397.13125 705.645 396.5125 706.75 395.875 C716.50000004 390.24999998 716.50000004 390.24999998 719.75170898 388.37402344 C721.91268988 387.12729744 724.07365998 385.88055273 726.23461914 384.63378906 C731.73818851 381.45854117 737.24196032 378.28364505 742.74609375 375.109375 C743.85654053 374.46871094 744.9669873 373.82804687 746.11108398 373.16796875 C748.30385536 371.90364494 750.49736109 370.64059379 752.69165039 369.37890625 C757.73153896 366.47842893 762.75729665 363.55920516 767.75 360.578125 C769.07173218 359.79453613 769.07173218 359.79453613 770.42016602 358.99511719 C772.05334945 358.02512249 773.6817788 357.04706086 775.30444336 356.05957031 C777.15918417 354.96211039 779.07540109 353.96974265 781 353 C784.92387566 354.30795855 785.2734936 355.7373968 787.265625 359.30859375 C787.90056885 360.43475098 788.5355127 361.5609082 789.18969727 362.72119141 C789.87649669 363.95994328 790.5632634 365.1987133 791.25 366.4375 C791.96632588 367.71331272 792.68370709 368.98853343 793.40209961 370.26318359 C794.88243388 372.8906333 796.35906736 375.52011126 797.83349609 378.15087891 C801.02694518 383.83744218 804.29471932 389.48092735 807.5625 395.125 C808.80353174 397.27335298 810.04441698 399.4217906 811.28515625 401.5703125 C811.89762207 402.63024414 812.51008789 403.69017578 813.14111328 404.78222656 C816.26324605 410.18670645 819.38141204 415.59347412 822.5 421 C823.74998122 423.1666775 824.99998121 425.33334417 826.25 427.5 C828.75 431.83333333 831.25 436.16666667 833.75 440.5 C834.36931396 441.5734668 834.98862793 442.64693359 835.62670898 443.75292969 C836.87104998 445.90980903 838.11535364 448.06670992 839.35961914 450.22363281 C843.23314724 456.93822194 847.1079088 463.65209696 850.984375 470.36499023 C852.26833469 472.59025287 853.55092761 474.81630478 854.83203125 477.04321289 C857.44782595 481.58962967 860.06762881 486.13151363 862.75390625 490.63671875 C863.33700562 491.62430176 863.33700562 491.62430176 863.93188477 492.63183594 C864.90583036 494.27830488 865.88988303 495.91878445 866.875 497.55859375 C868 500 868 500 867 503 C865.15600586 504.31176758 865.15600586 504.31176758 862.71484375 505.64453125 C861.80452393 506.14895752 860.8942041 506.65338379 859.95629883 507.1730957 C858.46199341 507.98460083 858.46199341 507.98460083 856.9375 508.8125 C854.81423372 509.98801246 852.69186414 511.1651458 850.5703125 512.34375 C849.4762207 512.94960938 848.38212891 513.55546875 847.25488281 514.1796875 C842.23328177 516.98804764 837.27283958 519.89771275 832.3125 522.8125 C823.57450122 527.93339038 814.79992392 532.98661614 806 538 C797.30589797 542.95363524 788.6349941 547.94373204 780 553 C770.08257496 558.80672181 760.11520049 564.52266516 750.13183594 570.21484375 C740.39601807 575.76669623 730.68946721 581.36769886 721 587 C723.92975222 589.2875096 726.94000365 591.19978792 730.1640625 593.046875 C731.19031738 593.63670166 732.21657227 594.22652832 733.27392578 594.83422852 C734.37978027 595.46643311 735.48563477 596.0986377 736.625 596.75 C737.7903649 597.41890541 738.95556389 598.08809996 740.12060547 598.75756836 C742.54197931 600.14862178 744.96406123 601.53842958 747.38671875 602.92724609 C752.97151045 606.12968401 758.5484462 609.34574451 764.125 612.5625 C765.20088379 613.18286133 766.27676758 613.80322266 767.38525391 614.44238281 C775.59429744 619.17946131 783.7825551 623.95147976 791.96582031 628.73291016 C799.25622452 632.98982759 806.56137748 637.22060699 813.875 641.4375 C814.9472583 642.0557666 816.0195166 642.6740332 817.12426758 643.31103516 C822.71262578 646.53198366 828.30296154 649.74947407 833.89453125 652.96484375 C845.32524509 659.54231182 856.73548032 666.14091129 868 673 C866.7423893 677.10897287 865.22023808 680.65406986 863.05078125 684.359375 C862.4578125 685.37902344 861.86484375 686.39867187 861.25390625 687.44921875 C860.29291016 689.08310547 860.29291016 689.08310547 859.3125 690.75 C858.63743361 691.90720972 857.96296538 693.06476857 857.2890625 694.22265625 C855.88984195 696.62570582 854.48807065 699.0272392 853.08447266 701.42773438 C849.86550616 706.93786845 846.68484971 712.47010358 843.5 718 C842.25146179 720.16415464 841.00276332 722.32821684 839.75390625 724.4921875 C837.23930564 728.85065388 834.72645339 733.21012191 832.21484375 737.5703125 C825.60235593 749.04653103 818.96493555 760.50731 812.28027344 771.94165039 C807.88572513 779.46461585 803.53250884 787.01083655 799.1875 794.5625 C793.88891304 803.76849707 788.52428481 812.92759731 783 822 C778.13737088 820.5904342 774.04484954 818.42942027 769.75 815.8125 C768.23381085 814.90501595 766.71683112 813.99885194 765.19921875 813.09375 C764.37083496 812.59875 763.54245117 812.10375 762.68896484 811.59375 C757.67332069 808.62097671 752.61579365 805.72064828 747.5625 802.8125 C746.45825684 802.17618652 745.35401367 801.53987305 744.21630859 800.88427734 C740.81124162 798.92220982 737.40566474 796.96102974 734 795 C720.3242105 787.12380667 706.66038714 779.22879716 693.03417969 771.26708984 C682.47379718 765.10080946 671.87873234 758.9950405 661.28222656 752.89111328 C655.85340058 749.76319852 650.42680719 746.63141552 645 743.5 C642.83334417 742.24998121 640.6666775 740.99998122 638.5 739.75 C625.5 732.25 612.5 724.75 599.5 717.25 C598.42580811 716.6302832 597.35161621 716.01056641 596.24487305 715.37207031 C594.09526366 714.13189239 591.94568642 712.89165873 589.79614258 711.65136719 C584.72690788 708.7264977 579.65735064 705.80219167 574.5866394 702.87988281 C572.19573403 701.50193062 569.80501328 700.12365828 567.41430664 698.74536133 C565.73016037 697.77459018 564.04574769 696.80428126 562.36132812 695.83398438 C561.33845703 695.24423828 560.31558594 694.65449219 559.26171875 694.046875 C558.36412842 693.52963867 557.46653809 693.01240234 556.54174805 692.47949219 C554.79725526 691.46406367 553.09050402 690.38178726 551.42114258 689.24707031 C549.15572904 687.81402784 549.15572904 687.81402784 547.00097656 688.14575195 C544.56634747 689.18513302 542.29197435 690.36797572 539.984375 691.66796875 C538.9931665 692.22411865 538.00195801 692.78026855 536.98071289 693.35327148 C535.91457764 693.95856689 534.84844238 694.5638623 533.75 695.1875 C532.63681396 695.815354 531.52362793 696.44320801 530.37670898 697.09008789 C520.89739329 702.45302396 511.48571542 707.9299443 502.08984375 713.4375 C495.78429581 717.1321331 489.45705564 720.78852681 483.125 724.4375 C482.04484619 725.06003662 480.96469238 725.68257324 479.85180664 726.32397461 C477.66203666 727.58576826 475.47217645 728.84740534 473.28222656 730.10888672 C467.85340058 733.23680148 462.42680719 736.36858448 457 739.5 C454.83334417 740.75001879 452.6666775 742.00001878 450.5 743.25 C448.89125 744.178125 448.89125 744.178125 447.25 745.125 C400.66666667 772 354.08333333 798.875 307.5 825.75 C306.42564697 826.36987793 305.35129395 826.98975586 304.24438477 827.62841797 C302.0966418 828.86738234 299.94869545 830.10599424 297.80053711 831.34423828 C292.70820563 834.28014105 287.61808305 837.21969755 282.5350647 840.17169189 C280.12565992 841.57068053 277.7150991 842.96767029 275.30444336 844.36450195 C273.59701018 845.35498071 271.89126028 846.3483594 270.18554688 847.34179688 C268.64157227 848.23608398 268.64157227 848.23608398 267.06640625 849.1484375 C266.15834229 849.67614746 265.25027832 850.20385742 264.31469727 850.74755859 C262 852 262 852 259 853 C259 853.66 259 854.32 259 855 C259.70745361 855.26466064 260.41490723 855.52932129 261.14379883 855.80200195 C264.14837346 857.0622334 266.87500798 858.54383309 269.69921875 860.16796875 C270.81264648 860.80621582 271.92607422 861.44446289 273.07324219 862.10205078 C274.27804914 862.79710633 275.48280029 863.4922586 276.6875 864.1875 C277.94288672 864.90894749 279.19842292 865.63013494 280.45410156 866.35107422 C283.68120292 868.2050294 286.90596414 870.06301465 290.13006592 871.92218018 C291.90920925 872.94766871 293.68904049 873.97194872 295.46923828 874.99560547 C307.94731102 882.17081885 320.39634113 889.39388264 332.82128906 896.66064453 C340.52024834 901.15527427 348.25468246 905.58599899 356 910 C365.72115617 915.5400173 375.40894658 921.13374809 385.06689453 926.78344727 C395.59084625 932.93766742 406.15380137 939.02369996 416.71777344 945.10888672 C422.14659942 948.23680148 427.57319281 951.36858448 433 954.5 C435.16665583 955.75001879 437.3333225 957.00001878 439.5 958.25 C459 969.5 459 969.5 478.5 980.75 C479.57282227 981.36891113 480.64564453 981.98782227 481.75097656 982.62548828 C483.91447476 983.87371034 486.07788643 985.12208239 488.24121094 986.37060547 C493.70565017 989.52405256 499.17163645 992.67476096 504.640625 995.8203125 C505.73544189 996.45066406 506.83025879 997.08101562 507.95825195 997.73046875 C510.13293958 998.98208753 512.30854219 1000.232118 514.48510742 1001.48046875 C519.81372571 1004.54561396 525.10549347 1007.65610902 530.34765625 1010.8671875 C531.35344727 1011.47868652 532.35923828 1012.09018555 533.39550781 1012.72021484 C535.29188417 1013.87727742 537.18104769 1015.04627484 539.06152344 1016.22900391 C539.90360352 1016.74124512 540.74568359 1017.25348633 541.61328125 1017.78125 C542.34329346 1018.23564453 543.07330566 1018.69003906 543.82543945 1019.15820312 C546.67588339 1020.26164207 548.10654345 1019.91957806 551 1019 C553.41150347 1017.85251119 553.41150347 1017.85251119 555.82421875 1016.3671875 C556.75669434 1015.81619385 557.68916992 1015.2652002 558.64990234 1014.69750977 C559.65230957 1014.09608154 560.6547168 1013.49465332 561.6875 1012.875 C563.86025981 1011.58913841 566.03345157 1010.30400648 568.20703125 1009.01953125 C569.32932129 1008.3538916 570.45161133 1007.68825195 571.60791016 1007.00244141 C577.00694148 1003.81524874 582.4405284 1000.68875325 587.875 997.5625 C590.05994368 996.30346844 592.24483925 995.04435339 594.4296875 993.78515625 C595.51475586 993.16012207 596.59982422 992.53508789 597.71777344 991.89111328 C603.14659942 988.76319852 608.57319281 985.63141552 614 982.5 C616.16665583 981.24998121 618.3333225 979.99998122 620.5 978.75 C622.10875 977.821875 622.10875 977.821875 623.75 976.875 C685.50000002 941.24999999 685.50000002 941.24999999 688.75048828 939.37475586 C690.91557071 938.12564482 693.08060982 936.87645871 695.24560547 935.62719727 C700.68615706 932.48797691 706.12747216 929.35009437 711.5703125 926.21484375 C721.0721186 920.73999357 730.57060002 915.26012274 740.03979492 909.72900391 C741.99756383 908.5855054 743.95604898 907.44323217 745.9152832 906.30224609 C750.73455064 903.49544199 755.54760742 900.6790991 760.34573364 897.83633423 C762.74724613 896.41589888 765.15357316 895.00375767 767.56079102 893.59301758 C769.28237845 892.58022029 770.9977019 891.55679938 772.71289062 890.53320312 C773.75251953 889.92541016 774.79214844 889.31761719 775.86328125 888.69140625 C777.24447144 887.87458374 777.24447144 887.87458374 778.65356445 887.04125977 C781 886 781 886 784 887 C785.31176758 888.84399414 785.31176758 888.84399414 786.64453125 891.28515625 C787.4012915 892.65087769 787.4012915 892.65087769 788.17333984 894.04418945 C788.7142627 895.04023193 789.25518555 896.03627441 789.8125 897.0625 C790.98672576 899.1831537 792.16255703 901.30291907 793.33984375 903.421875 C793.94554199 904.51564453 794.55124023 905.60941406 795.17529297 906.73632812 C798.00730101 911.80165908 800.93767997 916.80772974 803.875 921.8125 C810.67010868 933.41868187 817.39590465 945.06393965 824.10888672 956.71777344 C827.2368015 962.14659945 830.36861966 967.57317249 833.5 973 C834.74609839 975.16015357 835.99219214 977.32030983 837.23828125 979.48046875 C840.41745509 984.99120246 843.59894314 990.50059651 846.78125 996.00952148 C848.65263306 999.25208571 850.51974666 1002.49708216 852.38671875 1005.7421875 C854.78438752 1009.90625319 857.20532458 1014.05545321 859.64453125 1018.1953125 C860.49494995 1019.65070435 860.49494995 1019.65070435 861.36254883 1021.13549805 C862.4284483 1022.95946231 863.50212404 1024.77891167 864.5847168 1026.59301758 C865.28528198 1027.79800903 865.28528198 1027.79800903 866 1029.02734375 C866.4125 1029.72593506 866.825 1030.42452637 867.25 1031.14428711 C868 1033 868 1033 867 1036 C865.15600586 1037.31176758 865.15600586 1037.31176758 862.71484375 1038.64453125 C861.34912231 1039.4012915 861.34912231 1039.4012915 859.95581055 1040.17333984 C858.95976807 1040.7142627 857.96372559 1041.25518555 856.9375 1041.8125 C854.8168463 1042.98672576 852.69708093 1044.16255703 850.578125 1045.33984375 C849.48435547 1045.94554199 848.39058594 1046.55124023 847.26367188 1047.17529297 C842.19834092 1050.00730101 837.19227026 1052.93767997 832.1875 1055.875 C820.58131813 1062.67010868 808.93606035 1069.39590465 797.28222656 1076.10888672 C791.85340055 1079.2368015 786.42682751 1082.36861966 781 1085.5 C778.83984643 1086.74609839 776.67969017 1087.99219214 774.51953125 1089.23828125 C770.12040925 1091.77615993 765.72205679 1094.31536583 761.32421875 1096.85546875 C747.90293385 1104.60577436 734.46499442 1112.32586445 721 1120 C724.23266975 1122.6908148 727.42777197 1124.93884808 731.11328125 1126.9609375 C732.10126709 1127.50741943 733.08925293 1128.05390137 734.10717773 1128.61694336 C735.16493408 1129.19710205 736.22269043 1129.77726074 737.3125 1130.375 C745.90925435 1135.13848026 754.45915236 1139.96616631 762.9375 1144.9375 C771.23377019 1149.79942097 779.54343271 1154.6362684 787.875 1159.4375 C788.95515381 1160.06003662 790.03530762 1160.68257324 791.14819336 1161.32397461 C793.33796334 1162.58576826 795.52782355 1163.84740534 797.71777344 1165.10888672 C804.22217941 1168.85651605 810.72375795 1172.60904961 817.2253418 1176.36157227 C822.77686292 1179.56532462 828.33020797 1182.76584577 833.88671875 1185.9609375 C845.32032959 1192.53921282 856.73299389 1199.13939727 868 1206 C866.7423893 1210.10897287 865.22023808 1213.65406986 863.05078125 1217.359375 C862.45773193 1218.37918457 861.86468262 1219.39899414 861.25366211 1220.44970703 C860.61307861 1221.53880371 859.97249512 1222.62790039 859.3125 1223.75 C858.63817285 1224.9057488 857.96443682 1226.06184266 857.29125977 1227.21826172 C855.89270204 1229.61980548 854.49161706 1232.01984804 853.08886719 1234.41894531 C849.84524109 1239.97231834 846.64478536 1245.55059311 843.4375 1251.125 C838.6733229 1259.39123048 833.87996351 1267.63972757 829.0625 1275.875 C823.98724638 1284.5526265 818.97768607 1293.2662091 814 1302 C803.86337692 1319.7821405 793.60544424 1337.49259998 783 1355 C778.13737088 1353.5904342 774.04484954 1351.42942027 769.75 1348.8125 C768.23381085 1347.90501595 766.71683112 1346.99885194 765.19921875 1346.09375 C764.37083496 1345.59875 763.54245117 1345.10375 762.68896484 1344.59375 C757.67332135 1341.6209771 752.61581773 1338.72060528 747.5625 1335.8125 C746.45680664 1335.17546143 745.35111328 1334.53842285 744.21191406 1333.88208008 C741.93975918 1332.57299343 739.66745991 1331.26415738 737.39501953 1329.95556641 C731.92830025 1326.80667949 726.46422354 1323.6532151 721 1320.5 C714.47767561 1316.73634635 707.95486237 1312.97355377 701.4296875 1309.21484375 C686.92493063 1300.85750541 672.45430856 1292.44435921 658 1284 C650.08 1279.38 642.16 1274.76 634 1270 C633.67 1326.43 633.34 1382.86 633 1441 C576.57 1441 520.14 1441 462 1441 C461.67 1351.57 461.34 1262.14 461 1170 C455.06 1166.7 449.12 1163.4 443 1160 C439.19844813 1157.80584879 435.40577045 1155.60383848 431.625 1153.375 C422.7837872 1148.18984139 413.90576314 1143.07310981 405 1138 C395.27856294 1132.46048161 385.59104683 1126.86624806 375.93310547 1121.21655273 C365.40915375 1115.06233258 354.84619863 1108.97630004 344.28222656 1102.89111328 C338.85340058 1099.76319852 333.42680719 1096.63141552 328 1093.5 C325.83334417 1092.24998121 323.6666775 1090.99998122 321.5 1089.75 C291.16666667 1072.25 260.83333333 1054.75 230.5 1037.25 C229.42637207 1036.63060547 228.35274414 1036.01121094 227.24658203 1035.37304688 C225.09128689 1034.1295949 222.93601327 1032.88610564 220.78076172 1031.64257812 C215.77662326 1028.75537125 210.7722948 1025.8684957 205.76715088 1022.98303223 C204.01658759 1021.97380896 202.26609589 1020.96446164 200.515625 1019.95507812 C198.33607835 1018.6983234 196.15640168 1017.44179414 193.9765625 1016.18554688 C186.97116208 1012.14570578 179.98538949 1008.07481054 173 1004 C172.67 1114.22 172.34 1224.44 172 1338 C173.65 1338.66 175.3 1339.32 177 1340 C178.20671757 1340.60552136 179.40166607 1341.23521562 180.58203125 1341.890625 C181.25363281 1342.26276123 181.92523437 1342.63489746 182.6171875 1343.01831055 C183.34164062 1343.42476807 184.06609375 1343.83122559 184.8125 1344.25 C185.59238281 1344.68546143 186.37226562 1345.12092285 187.17578125 1345.56958008 C195.73353842 1350.37245415 204.19617718 1355.33793988 212.6640625 1360.296875 C219.05281992 1364.03634589 225.46116076 1367.74125034 231.875 1371.4375 C232.95458984 1372.05971436 234.03417969 1372.68192871 235.14648438 1373.32299805 C237.3368252 1374.58511517 239.52725502 1375.84707785 241.71777344 1377.10888672 C247.14659942 1380.23680148 252.57319281 1383.36858448 258 1386.5 C260.16665583 1387.75001879 262.3333225 1389.00001878 264.5 1390.25 C277.5 1397.75 290.5 1405.25 303.5 1412.75 C304.57266113 1413.36883057 305.64532227 1413.98766113 306.75048828 1414.62524414 C308.91557071 1415.87435518 311.08060982 1417.12354129 313.24560547 1418.37280273 C318.68615706 1421.51202309 324.12747216 1424.64990563 329.5703125 1427.78515625 C341.04055275 1434.39419944 352.49448536 1441.02963205 363.92407227 1447.70874023 C371.62317046 1452.20471763 379.3389679 1456.67118047 387.0625 1461.125 C388.15111328 1461.75277344 389.23972656 1462.38054687 390.36132812 1463.02734375 C395.5685979 1466.02814328 400.77909963 1469.02297596 406 1472 C405.40482565 1475.9714117 404.16709342 1478.87478558 402.19140625 1482.359375 C401.61463135 1483.38345459 401.03785645 1484.40753418 400.44360352 1485.46264648 C399.82283936 1486.54747314 399.2020752 1487.6322998 398.5625 1488.75 C397.9243335 1489.87672119 397.28616699 1491.00344238 396.62866211 1492.16430664 C392.38154264 1499.64203591 388.05830489 1507.07214578 383.671875 1514.46875 C380.33998053 1520.09867921 377.07857128 1525.7692187 373.8125 1531.4375 C373.17521973 1532.54327393 372.53793945 1533.64904785 371.88134766 1534.78833008 C369.9203862 1538.1919253 367.96011785 1541.59591889 366 1545 C358.13413036 1558.65786401 350.25924691 1572.30969763 342.2956543 1585.91088867 C339.12079399 1591.33951619 335.97474327 1596.78319792 332.859375 1602.24609375 C332.16675516 1603.45773288 331.47404761 1604.66932188 330.78125 1605.88085938 C329.44732926 1608.21362964 328.12042702 1610.54995545 326.796875 1612.88867188 C326.19875 1613.93474609 325.600625 1614.98082031 324.984375 1616.05859375 C324.45553711 1616.98986084 323.92669922 1617.92112793 323.38183594 1618.88061523 C322 1621 322 1621 320 1622 C317.79882812 1620.97460937 317.79882812 1620.97460937 315.03125 1619.34375 C313.99871094 1618.74111328 312.96617187 1618.13847656 311.90234375 1617.51757812 C310.21818359 1616.51887695 310.21818359 1616.51887695 308.5 1615.5 C307.32471566 1614.81100063 306.14892631 1614.12286205 304.97265625 1613.43554688 C302.52536358 1612.00464607 300.08030353 1610.5700355 297.63671875 1609.1328125 C292.11128646 1605.88704251 286.55423074 1602.69614255 281 1599.5 C278.83318132 1598.25026352 276.66651519 1597.00026252 274.5 1595.75 C273.4275 1595.13125 272.355 1594.5125 271.25 1593.875 C259.33333333 1587 247.41666667 1580.125 235.5 1573.25 C234.4267749 1572.63084717 233.3535498 1572.01169434 232.24780273 1571.3737793 C230.08840605 1570.1279423 227.92906331 1568.88201182 225.76977539 1567.63598633 C220.24232403 1564.44651047 214.71384879 1561.25883115 209.18359375 1558.07421875 C208.05373047 1557.42324219 206.92386719 1556.77226563 205.75976562 1556.1015625 C203.64554146 1554.88349096 201.53099381 1553.6659806 199.41601562 1552.44921875 C190.57653976 1547.35508728 181.79500641 1542.17353318 173 1537 C172.67 1593.43 172.34 1649.86 172 1708 C115.24 1708 58.48 1708 0 1708 C-0.33 1651.57 -0.66 1595.14 -1 1537 C-13.87 1544.425 -13.87 1544.425 -27 1552 C-31.29 1554.475 -35.58 1556.95 -40 1559.5 C-42.14242187 1560.73621094 -44.28484375 1561.97242188 -46.4921875 1563.24609375 C-50.85065388 1565.76069436 -55.21012191 1568.27354661 -59.5703125 1570.78515625 C-71.04936999 1577.39927985 -82.51202075 1584.03995784 -93.95043945 1590.72412109 C-103.54378794 1596.3262262 -113.16737929 1601.87540914 -122.79296875 1607.421875 C-131.20301633 1612.26794437 -139.60195013 1617.13317833 -148 1622 C-150.65565787 1619.60030318 -152.27998553 1617.03555811 -154.046875 1613.93359375 C-154.63670166 1612.90411621 -155.22652832 1611.87463867 -155.83422852 1610.81396484 C-156.46643311 1609.69973145 -157.0986377 1608.58549805 -157.75 1607.4375 C-158.41867512 1606.2674468 -159.08787351 1605.0976925 -159.75756836 1603.92822266 C-161.14953254 1601.49645633 -162.53923202 1599.06341756 -163.92724609 1596.62939453 C-167.12019395 1591.03377343 -170.34176084 1585.45465587 -173.5625 1579.875 C-174.49304199 1578.26129517 -174.49304199 1578.26129517 -175.44238281 1576.61499023 C-179.60697312 1569.3974883 -183.79617629 1562.19470984 -188 1555 C-192.8366788 1546.72217891 -197.64865723 1538.43059092 -202.4375 1530.125 C-203.0557666 1529.0527417 -203.6740332 1527.9804834 -204.31103516 1526.87573242 C-207.53198366 1521.28737422 -210.74947407 1515.69703846 -213.96484375 1510.10546875 C-215.26817226 1507.84111308 -216.57155675 1505.57678963 -217.875 1503.3125 C-218.49826172 1502.22775391 -219.12152344 1501.14300781 -219.76367188 1500.02539062 C-222.44109265 1495.37784632 -225.13224677 1490.74515327 -227.94140625 1486.17578125 C-228.37018066 1485.47735107 -228.79895508 1484.7789209 -229.24072266 1484.05932617 C-230.33758271 1482.28649422 -231.44745024 1480.52172724 -232.55859375 1478.7578125 C-234 1476 -234 1476 -234 1472 C-233.42894531 1471.67950684 -232.85789062 1471.35901367 -232.26953125 1471.02880859 C-220.18625718 1464.24037143 -208.15439352 1457.37311092 -196.19287109 1450.37231445 C-185.58353211 1444.16403197 -174.93371497 1438.02671226 -164.28222656 1431.89111328 C-158.85340058 1428.76319852 -153.42680719 1425.63141552 -148 1422.5 C-145.83334417 1421.24998121 -143.6666775 1419.99998122 -141.5 1418.75 C-140.4275 1418.13125 -139.355 1417.5125 -138.25 1416.875 C-128.5 1411.25 -128.5 1411.25 -125.24951172 1409.37475586 C-123.08442929 1408.12564482 -120.91939018 1406.87645871 -118.75439453 1405.62719727 C-113.31384294 1402.48797691 -107.87252784 1399.35009437 -102.4296875 1396.21484375 C-91.93767906 1390.16944841 -81.45518324 1384.10889781 -71 1378 C-58.36248313 1370.61597837 -45.68284612 1363.30580385 -33 1356 C-28.8036869 1353.58216338 -24.60779716 1351.16359338 -20.41229248 1348.74435425 C-18.72901778 1347.77393527 -17.04542113 1346.80407481 -15.36181641 1345.83422852 C-14.33878418 1345.24440186 -13.31575195 1344.6545752 -12.26171875 1344.046875 C-11.36412842 1343.52963867 -10.46653809 1343.01240234 -9.54174805 1342.47949219 C-7.7760795 1341.45173775 -6.02845695 1340.39259918 -4.29614258 1339.30957031 C-2 1338 -2 1338 0 1338 C-0.33 1227.78 -0.66 1117.56 -1 1004 C-16.37606262 1012.7863215 -31.73187144 1021.56864099 -47.015625 1030.5078125 C-56.55822933 1036.08429156 -66.14057793 1041.59211491 -75.71777344 1047.10888672 C-81.14659942 1050.23680148 -86.57319281 1053.36858448 -92 1056.5 C-94.16665583 1057.75001879 -96.3333225 1059.00001878 -98.5 1060.25 C-99.5725 1060.86875 -100.645 1061.4875 -101.75 1062.125 C-148.33333333 1089 -194.91666667 1115.875 -241.5 1142.75 C-242.57443359 1143.36987793 -243.64886719 1143.98975586 -244.75585938 1144.62841797 C-246.90295136 1145.86710002 -249.05008614 1147.1057079 -251.19726562 1148.34423828 C-256.29588809 1151.2853335 -261.39405296 1154.22721413 -266.49072266 1157.17169189 C-268.91047665 1158.56958601 -271.33047263 1159.96706089 -273.75048828 1161.36450195 C-275.46801052 1162.35652324 -277.18518052 1163.34915429 -278.90234375 1164.34179688 C-280.45115234 1165.23608398 -280.45115234 1165.23608398 -282.03125 1166.1484375 C-282.94455078 1166.67614746 -283.85785156 1167.20385742 -284.79882812 1167.74755859 C-286.17988691 1168.53336511 -287.57878495 1169.28939248 -289 1170 C-289.33 1259.43 -289.66 1348.86 -290 1441 C-346.43 1441 -402.86 1441 -461 1441 C-461.33 1384.57 -461.66 1328.14 -462 1270 C-469.92 1274.62 -477.84 1279.24 -486 1284 C-490.28924858 1286.48362088 -494.57931893 1288.96512312 -498.875 1291.4375 C-501.05990538 1292.69659802 -503.24480092 1293.95571311 -505.4296875 1295.21484375 C-506.51475586 1295.83987793 -507.59982422 1296.46491211 -508.71777344 1297.10888672 C-514.14659942 1300.23680148 -519.57319281 1303.36858448 -525 1306.5 C-527.16665583 1307.75001879 -529.3333225 1309.00001878 -531.5 1310.25 C-532.5725 1310.86875 -533.645 1311.4875 -534.75 1312.125 C-544.49999995 1317.74999997 -544.49999995 1317.74999997 -547.75170898 1319.62597656 C-549.91268988 1320.87270256 -552.07365998 1322.11944727 -554.23461914 1323.36621094 C-559.73818851 1326.54145883 -565.24196032 1329.71635495 -570.74609375 1332.890625 C-571.85654053 1333.53128906 -572.9669873 1334.17195313 -574.11108398 1334.83203125 C-576.30385536 1336.09635506 -578.49736109 1337.35940621 -580.69165039 1338.62109375 C-585.73153896 1341.52157107 -590.75729665 1344.44079484 -595.75 1347.421875 C-596.63115479 1347.94426758 -597.51230957 1348.46666016 -598.42016602 1349.00488281 C-600.05334945 1349.97487751 -601.6817788 1350.95293914 -603.30444336 1351.94042969 C-605.15918417 1353.03788961 -607.07540109 1354.03025735 -609 1355 C-612.64751775 1353.78416075 -612.85255743 1352.99712003 -614.64453125 1349.71484375 C-615.4012915 1348.34912231 -615.4012915 1348.34912231 -616.17333984 1346.95581055 C-616.98472412 1345.46174683 -616.98472412 1345.46174683 -617.8125 1343.9375 C-618.98672576 1341.8168463 -620.16255703 1339.69708093 -621.33984375 1337.578125 C-622.24839111 1335.9374707 -622.24839111 1335.9374707 -623.17529297 1334.26367188 C-626.00730101 1329.19834092 -628.93767997 1324.19227026 -631.875 1319.1875 C-638.67010868 1307.58131813 -645.39590465 1295.93606035 -652.10888672 1284.28222656 C-655.2368015 1278.85340055 -658.36861966 1273.42682751 -661.5 1268 C-662.74609839 1265.83984643 -663.99219214 1263.67969017 -665.23828125 1261.51953125 C-668.41745509 1256.00879754 -671.59894314 1250.49940349 -674.78125 1244.99047852 C-676.65263306 1241.74791429 -678.51974666 1238.50291784 -680.38671875 1235.2578125 C-682.78438752 1231.09374681 -685.20532458 1226.94454679 -687.64453125 1222.8046875 C-688.21147705 1221.83442627 -688.77842285 1220.86416504 -689.36254883 1219.86450195 C-690.4284483 1218.04053769 -691.50212404 1216.22108833 -692.5847168 1214.40698242 C-693.05176025 1213.60365479 -693.51880371 1212.80032715 -694 1211.97265625 C-694.4125 1211.27406494 -694.825 1210.57547363 -695.25 1209.85571289 C-696 1208 -696 1208 -695 1205 C-692.86132812 1203.53295898 -692.86132812 1203.53295898 -690.03125 1201.99609375 C-688.99427979 1201.42576416 -687.95730957 1200.85543457 -686.88891602 1200.26782227 C-685.21140259 1199.36181274 -685.21140259 1199.36181274 -683.5 1198.4375 C-681.18543129 1197.16545643 -678.87162963 1195.89201618 -676.55859375 1194.6171875 C-675.42663574 1193.99553711 -674.29467773 1193.37388672 -673.12841797 1192.73339844 C-669.23288683 1190.5749568 -665.38850119 1188.3413034 -661.5625 1186.0625 C-654.59296903 1181.92571282 -647.58497227 1177.85877918 -640.5625 1173.8125 C-639.45527588 1173.17449463 -638.34805176 1172.53648926 -637.20727539 1171.87915039 C-634.93662932 1170.57110523 -632.66587642 1169.26324552 -630.39501953 1167.95556641 C-624.9283002 1164.80667946 -619.46425113 1161.65316736 -614 1158.5 C-611.83334689 1157.2499765 -609.66668021 1155.99997653 -607.5 1154.75 C-606.4275 1154.13125 -605.355 1153.5125 -604.25 1152.875 C-585.83333333 1142.25 -567.41666667 1131.625 -549 1121 C-551.95003786 1118.69447567 -554.98545286 1116.77600685 -558.234375 1114.91796875 C-559.27078125 1114.32306641 -560.3071875 1113.72816406 -561.375 1113.11523438 C-562.48875 1112.47908203 -563.6025 1111.84292969 -564.75 1111.1875 C-567.12049585 1109.8280485 -569.48989473 1108.46668939 -571.859375 1107.10546875 C-572.46019897 1106.76063446 -573.06102295 1106.41580017 -573.68005371 1106.06051636 C-579.47006031 1102.73552825 -585.23675498 1099.37113663 -591 1096 C-602.54693825 1089.25238294 -614.12902497 1082.56660412 -625.71777344 1075.89111328 C-632.22217941 1072.14348395 -638.72375795 1068.39095039 -645.2253418 1064.63842773 C-650.77686292 1061.43467538 -656.33020797 1058.23415423 -661.88671875 1055.0390625 C-673.32032959 1048.46078718 -684.73299389 1041.86060273 -696 1035 C-694.7423893 1030.89102713 -693.22023808 1027.34593014 -691.05078125 1023.640625 C-690.45773193 1022.62081543 -689.86468262 1021.60100586 -689.25366211 1020.55029297 C-688.29278687 1018.91664795 -688.29278687 1018.91664795 -687.3125 1017.25 C-686.63817285 1016.0942512 -685.96443682 1014.93815734 -685.29125977 1013.78173828 C-683.89270204 1011.38019452 -682.49161706 1008.98015196 -681.08886719 1006.58105469 C-677.84524089 1001.0276813 -674.64483323 995.4493797 -671.4375 989.875 C-666.07765885 980.57690434 -660.68141718 971.30062777 -655.26708984 962.03417969 C-651.01017241 954.74377548 -646.77939301 947.43862252 -642.5625 940.125 C-641.9442334 939.0527417 -641.3259668 937.9804834 -640.68896484 936.87573242 C-637.46801634 931.28737422 -634.25052593 925.69703846 -631.03515625 920.10546875 C-624.45768818 908.67475491 -617.85908871 897.26451968 -611 886 C-604.81836396 887.62838399 -599.68904157 890.94241683 -594.25 894.1875 C-592.08894367 895.46292098 -589.927471 896.73763673 -587.765625 898.01171875 C-586.09209961 899.00051025 -586.09209961 899.00051025 -584.38476562 900.00927734 C-578.94407975 903.20917294 -573.47178526 906.35368231 -568 909.5 C-559.65162049 914.30782754 -551.31756351 919.13905955 -543 924 C-531.45277514 930.74713114 -519.87097881 937.4333937 -508.28222656 944.10888672 C-502.85340058 947.23680148 -497.42680719 950.36858448 -492 953.5 C-489.83334417 954.75001879 -487.6666775 956.00001878 -485.5 957.25 C-466 968.5 -466 968.5 -446.5 979.75 C-445.42733887 980.36883057 -444.35467773 980.98766113 -443.24951172 981.62524414 C-441.08442929 982.87435518 -438.91939018 984.12354129 -436.75439453 985.37280273 C-431.31384294 988.51202309 -425.87252784 991.64990563 -420.4296875 994.78515625 C-419.34510254 995.41035156 -418.26051758 996.03554687 -417.14306641 996.6796875 C-414.98213272 997.92465392 -412.82036194 999.1681686 -410.65771484 1000.41015625 C-405.13265764 1003.58897935 -399.63555265 1006.80648864 -394.171875 1010.08984375 C-392.52276123 1011.07392212 -392.52276123 1011.07392212 -390.84033203 1012.07788086 C-388.74133157 1013.33265919 -386.64823373 1014.59737985 -384.56201172 1015.87329102 C-383.62631348 1016.43072998 -382.69061523 1016.98816895 -381.7265625 1017.5625 C-380.90752441 1018.05878906 -380.08848633 1018.55507812 -379.24462891 1019.06640625 C-376.58468464 1020.17273939 -375.63925229 1020.04946646 -373 1019 C-370.37837779 1017.6509814 -367.81396734 1016.26385544 -365.25 1014.8125 C-364.07123291 1014.15145264 -364.07123291 1014.15145264 -362.86865234 1013.47705078 C-355.39521042 1009.26553792 -347.99183556 1004.9340331 -340.59082031 1000.59692383 C-332.75771793 996.01042009 -324.88701889 991.49278881 -317 987 C-307.27856294 981.46048161 -297.59104683 975.86624806 -287.93310547 970.21655273 C-277.40915375 964.06233258 -266.84619863 957.97630004 -256.28222656 951.89111328 C-250.85340058 948.76319852 -245.42680719 945.63141552 -240 942.5 C-237.83334417 941.24998121 -235.6666775 939.99998122 -233.5 938.75 C-231.89125 937.821875 -231.89125 937.821875 -230.25 936.875 C-142.5 886.25 -142.5 886.25 -139.24560547 884.37255859 C-137.0934787 883.13088473 -134.94145927 881.88902478 -132.78955078 880.64697266 C-127.74969023 877.73833177 -122.70882508 874.83148102 -117.66400146 871.93145752 C-115.88250422 870.90724335 -114.10135678 869.88242349 -112.3203125 868.85742188 C-110.08923375 867.57366625 -107.85750427 866.29104061 -105.625 865.00976562 C-101.15786352 862.43803629 -96.72384605 859.850525 -92.3828125 857.0703125 C-89 855 -89 855 -87 855 C-89.26213474 852.52509694 -91.55254003 850.97504144 -94.48046875 849.35546875 C-95.38450439 848.85096191 -96.28854004 848.34645508 -97.2199707 847.82666016 C-98.68889771 847.01527588 -98.68889771 847.01527588 -100.1875 846.1875 C-102.28985912 845.01314374 -104.39139706 843.8373164 -106.4921875 842.66015625 C-107.57338867 842.05445801 -108.65458984 841.44875977 -109.76855469 840.82470703 C-114.81330272 837.97607854 -119.81419511 835.05413871 -124.8125 832.125 C-136.419168 825.33071443 -148.06393292 818.60409923 -159.71777344 811.89111328 C-165.14659942 808.76319852 -170.57319281 805.63141552 -176 802.5 C-178.16665583 801.24998121 -180.3333225 799.99998122 -182.5 798.75 C-230.16666667 771.25 -277.83333333 743.75 -325.5 716.25 C-326.57435303 715.63020264 -327.64870605 715.01040527 -328.75561523 714.37182617 C-330.90364046 713.13253733 -333.05159075 711.89311859 -335.19946289 710.65356445 C-340.28655549 707.71797433 -345.37441847 704.78374328 -350.4649353 701.85409546 C-352.87543748 700.46671905 -355.28551376 699.07860376 -357.69555664 697.69042969 C-359.40143968 696.70826185 -361.10793986 695.72716615 -362.81445312 694.74609375 C-363.84376953 694.153125 -364.87308594 693.56015625 -365.93359375 692.94921875 C-366.84165771 692.42674561 -367.74972168 691.90427246 -368.68530273 691.3659668 C-370.49126201 690.30022034 -372.25521129 689.16319248 -374 688 C-377.82374097 688.33726233 -380.55978322 689.68404047 -383.82421875 691.6328125 C-384.75669434 692.18380615 -385.68916992 692.7347998 -386.64990234 693.30249023 C-387.65230957 693.90391846 -388.6547168 694.50534668 -389.6875 695.125 C-391.86025981 696.41086159 -394.03345157 697.69599352 -396.20703125 698.98046875 C-397.32932129 699.6461084 -398.45161133 700.31174805 -399.60791016 700.99755859 C-405.00694148 704.18475126 -410.4405284 707.31124675 -415.875 710.4375 C-418.05994368 711.69653156 -420.24483925 712.95564661 -422.4296875 714.21484375 C-423.51475586 714.83987793 -424.59982422 715.46491211 -425.71777344 716.10888672 C-431.14659942 719.23680148 -436.57319281 722.36858448 -442 725.5 C-444.16665583 726.75001879 -446.3333225 728.00001878 -448.5 729.25 C-450.10875 730.178125 -450.10875 730.178125 -451.75 731.125 C-487.49999999 751.74999999 -487.49999999 751.74999999 -490.75048828 753.62524414 C-492.91557071 754.87435518 -495.08060982 756.12354129 -497.24560547 757.37280273 C-502.68615706 760.51202309 -508.12747216 763.64990563 -513.5703125 766.78515625 C-524.06232094 772.83055159 -534.54481676 778.89110219 -545 785 C-554.34756108 790.46172115 -563.71052923 795.89599964 -573.09790039 801.2890625 C-578.23840092 804.24352444 -583.37026741 807.21030285 -588.47399902 810.22779846 C-590.87887532 811.64874766 -593.2880499 813.06231702 -595.6975708 814.47537231 C-597.40727236 815.48219923 -599.11068692 816.49967777 -600.81396484 817.51733398 C-602.35818115 818.42140991 -602.35818115 818.42140991 -603.93359375 819.34375 C-605.2956897 820.15102539 -605.2956897 820.15102539 -606.68530273 820.97460938 C-609 822 -609 822 -612 821 C-613.31176758 819.15600586 -613.31176758 819.15600586 -614.64453125 816.71484375 C-615.4012915 815.34912231 -615.4012915 815.34912231 -616.17333984 813.95581055 C-616.98472412 812.46174683 -616.98472412 812.46174683 -617.8125 810.9375 C-618.98672576 808.8168463 -620.16255703 806.69708093 -621.33984375 804.578125 C-622.24839111 802.9374707 -622.24839111 802.9374707 -623.17529297 801.26367188 C-626.00730101 796.19834092 -628.93767997 791.19227026 -631.875 786.1875 C-638.67010868 774.58131813 -645.39590465 762.93606035 -652.10888672 751.28222656 C-655.2368015 745.85340055 -658.36861966 740.42682751 -661.5 735 C-662.74609839 732.83984643 -663.99219214 730.67969017 -665.23828125 728.51953125 C-668.41745509 723.00879754 -671.59894314 717.49940349 -674.78125 711.99047852 C-676.65263306 708.74791429 -678.51974666 705.50291784 -680.38671875 702.2578125 C-682.78438752 698.09374681 -685.20532458 693.94454679 -687.64453125 689.8046875 C-688.21147705 688.83442627 -688.77842285 687.86416504 -689.36254883 686.86450195 C-690.4284483 685.04053769 -691.50212404 683.22108833 -692.5847168 681.40698242 C-693.05176025 680.60365479 -693.51880371 679.80032715 -694 678.97265625 C-694.4125 678.27406494 -694.825 677.57547363 -695.25 676.85571289 C-696 675 -696 675 -695 672 C-692.86132813 670.53295898 -692.86132813 670.53295898 -690.03125 668.99609375 C-688.99427979 668.42576416 -687.95730957 667.85543457 -686.88891602 667.26782227 C-685.77057373 666.66381592 -684.65223145 666.05980957 -683.5 665.4375 C-681.18543129 664.16545643 -678.87162963 662.89201618 -676.55859375 661.6171875 C-675.42663574 660.99553711 -674.29467773 660.37388672 -673.12841797 659.73339844 C-669.23288683 657.5749568 -665.38850119 655.3413034 -661.5625 653.0625 C-654.59296829 648.92571237 -647.58493863 644.85883854 -640.5625 640.8125 C-639.45672607 640.17521973 -638.35095215 639.53793945 -637.21166992 638.88134766 C-633.8080747 636.9203862 -630.40408111 634.96011785 -627 633 C-613.34156291 625.1338003 -599.69128116 617.25509838 -586.08691406 609.2956543 C-580.66700065 606.12773382 -575.23559094 602.9812296 -569.7890625 599.859375 C-568.58203068 599.16666765 -567.37499943 598.47395933 -566.16796875 597.78125 C-563.84704203 596.44956032 -561.5238122 595.12218484 -559.19921875 593.796875 C-557.63494141 592.8996875 -557.63494141 592.8996875 -556.0390625 591.984375 C-555.11303223 591.45553711 -554.18700195 590.92669922 -553.23291016 590.38183594 C-550.90861113 589.06139685 -550.90861113 589.06139685 -549 587 C-549.57105469 586.67950684 -550.14210938 586.35901367 -550.73046875 586.02880859 C-562.81374282 579.24037143 -574.84560648 572.37311092 -586.80712891 565.37231445 C-597.41646789 559.16403197 -608.06628503 553.02671226 -618.71777344 546.89111328 C-625.22729589 543.14053601 -631.7339478 539.38498011 -638.24072266 535.62963867 C-643.70534663 532.47614838 -649.17147902 529.3253296 -654.640625 526.1796875 C-668.4833929 518.21352792 -682.27150141 510.1615945 -696 502 C-694.37741852 495.85883719 -691.10248156 490.77767701 -687.875 485.375 C-686.60034343 483.21686539 -685.3269566 481.05798044 -684.0546875 478.8984375 C-683.38920898 477.77018555 -682.72373047 476.64193359 -682.03808594 475.47949219 C-678.97813757 470.27095257 -675.99368379 465.01929386 -673.00640869 459.76885986 C-667.16436147 449.5009012 -661.2585786 439.27264109 -655.2890625 429.078125 C-650.80833505 421.41425632 -646.39529866 413.7130071 -642 406 C-631.86367139 388.21770097 -621.60543815 370.50738996 -611 353 C-604.81833713 354.62839106 -599.68909366 357.94247095 -594.25 361.1875 C-592.08632451 362.46419778 -589.92224834 363.74021671 -587.7578125 365.015625 C-586.08380371 366.0046582 -586.08380371 366.0046582 -584.37597656 367.01367188 C-578.9787367 370.18925356 -573.55236 373.3137656 -568.125 376.4375 C-565.94008624 377.69658348 -563.75519051 378.95569823 -561.5703125 380.21484375 C-560.48524414 380.83987793 -559.40017578 381.46491211 -558.28222656 382.10888672 C-552.85340058 385.23680148 -547.42680719 388.36858448 -542 391.5 C-539.83334417 392.75001879 -537.6666775 394.00001878 -535.5 395.25 C-531.16666667 397.75 -526.83333333 400.25 -522.5 402.75 C-521.42661377 403.3692334 -520.35322754 403.9884668 -519.24731445 404.62646484 C-517.08950197 405.87141282 -514.93178647 407.1165289 -512.77416992 408.36181641 C-507.22283408 411.56552651 -501.66963459 414.7659363 -496.11328125 417.9609375 C-494.97439453 418.61642578 -493.83550781 419.27191406 -492.66210938 419.94726562 C-490.52212512 421.1788484 -488.38155774 422.40941886 -486.24023438 423.63867188 C-478.0958997 428.32815541 -470.06301516 433.16219091 -462 438 C-461.67 381.57 -461.34 325.14 -461 267 C-404.57 267 -348.14 267 -290 267 C-290 356.43 -290 445.86 -290 538 C-288.35 538.66 -286.7 539.32 -285 540 C-283.06003488 541.03689272 -281.13811842 542.10791548 -279.23046875 543.203125 C-278.10705078 543.84636719 -276.98363281 544.48960937 -275.82617188 545.15234375 C-274.61321505 545.85144766 -273.40032616 546.55066944 -272.1875 547.25 C-270.92393897 547.97545351 -269.66026552 548.70071126 -268.39648438 549.42578125 C-259.60068817 554.47780307 -250.83620262 559.5829715 -242.08276367 564.70800781 C-234.41756602 569.19007634 -226.71472895 573.60403778 -219 578 C-209.27875494 583.53985933 -199.59105132 589.13374932 -189.93310547 594.78344727 C-179.40915375 600.93766742 -168.84619863 607.02369996 -158.28222656 613.10888672 C-152.85340058 616.23680148 -147.42680719 619.36858448 -142 622.5 C-139.83334417 623.75001879 -137.6666775 625.00001878 -135.5 626.25 C-113.83333333 638.75 -92.16666667 651.25 -70.5 663.75 C-69.42733887 664.36883057 -68.35467773 664.98766113 -67.24951172 665.62524414 C-65.08442929 666.87435518 -62.91939018 668.12354129 -60.75439453 669.37280273 C-55.31384294 672.51202309 -49.87252784 675.64990563 -44.4296875 678.78515625 C-43.33140625 679.41808594 -42.233125 680.05101562 -41.1015625 680.703125 C-39.0784209 681.86900321 -37.05502318 683.03443721 -35.03125 684.19921875 C-23.6603388 690.75349733 -12.33732009 697.38656328 -1 704 C-0.67 593.78 -0.34 483.56 0 370 C-1.65 369.34 -3.3 368.68 -5 368 C-6.71934044 367.10624743 -8.42309042 366.18209867 -10.11328125 365.234375 C-11.59526001 364.40498413 -11.59526001 364.40498413 -13.10717773 363.55883789 C-14.16493408 362.96192139 -15.22269043 362.36500488 -16.3125 361.75 C-17.97551147 360.81498657 -17.97551147 360.81498657 -19.67211914 359.86108398 C-29.13688203 354.5226921 -38.52809018 349.06189535 -47.90234375 343.56640625 C-54.25046615 339.84665088 -60.62362113 336.17104751 -67 332.5 C-75.34809759 327.69167922 -83.68243316 322.8609424 -92 318 C-103.54722486 311.25286886 -115.12902119 304.5666063 -126.71777344 297.89111328 C-132.14659942 294.76319852 -137.57319281 291.63141552 -143 288.5 C-145.16665583 287.24998121 -147.3333225 285.99998122 -149.5 284.75 C-177.66666667 268.5 -205.83333333 252.25 -234 236 C-233.41921503 232.30398418 -232.40940419 229.56292492 -230.55078125 226.32421875 C-230.0398291 225.42662842 -229.52887695 224.52903809 -229.00244141 223.60424805 C-228.16592041 222.16045776 -228.16592041 222.16045776 -227.3125 220.6875 C-226.44117432 219.16539917 -226.44117432 219.16539917 -225.55224609 217.61254883 C-220.28487432 208.43241348 -214.94415377 199.29436919 -209.59765625 190.16015625 C-203.98321325 180.56057762 -198.4419968 170.91864049 -192.89111328 161.28222656 C-189.14135226 154.77412081 -185.38687124 148.26873565 -181.63183594 141.76367188 C-178.46411293 136.27515754 -175.30052284 130.78433215 -172.14453125 125.2890625 C-164.56802393 112.10726544 -156.8863723 98.99902474 -149 86 C-145.32774624 87.98981151 -141.66279845 89.99285303 -138 92 C-137.05906494 92.51481934 -137.05906494 92.51481934 -136.09912109 93.04003906 C-124.73263161 99.27031177 -113.52088701 105.74720894 -102.3359375 112.296875 C-95.94718008 116.03634589 -89.53883924 119.74125034 -83.125 123.4375 C-82.04541016 124.05971436 -80.96582031 124.68192871 -79.85351562 125.32299805 C-77.6631748 126.58511517 -75.47274498 127.84707785 -73.28222656 129.10888672 C-66.7764039 132.8573323 -60.27355917 136.61094181 -53.77026367 140.36376953 C-48.24262719 143.55328795 -42.71400619 146.74107821 -37.18359375 149.92578125 C-35.48879883 150.90224609 -35.48879883 150.90224609 -33.75976562 151.8984375 C-31.64554146 153.11650904 -29.53099381 154.3340194 -27.41601562 155.55078125 C-18.57653976 160.64491272 -9.79500641 165.82646682 -1 171 C-0.67 114.57 -0.34 58.14 0 0 Z " fill="#3C7CAB" transform="translate(938,170)"/>
</svg>
